<mxfile host="app.diagrams.net" agent="Mozilla/5.0 (Windows NT 10.0; Win64; x64) AppleWebKit/537.36 (KHTML, like Gecko) Chrome/136.0.0.0 Safari/537.36 Edg/136.0.0.0" version="27.0.9">
  <diagram name="ページ1" id="XvXZGMSoU34Mvugd_IdP">
    <mxGraphModel dx="731" dy="2800" grid="1" gridSize="10" guides="1" tooltips="1" connect="1" arrows="1" fold="1" page="1" pageScale="1" pageWidth="827" pageHeight="1169" math="0" shadow="0">
      <root>
        <mxCell id="0" />
        <mxCell id="1" parent="0" />
        <UserObject label="" plantUmlData="{&quot;data&quot;:&quot;@startuml\nparticipant \&quot;User\&quot; as User\nparticipant \&quot;CenterInfoController\&quot; as Controller\nparticipant \&quot;CenterInfoForm\&quot; as Form\nparticipant \&quot;CenterInfoFormValidatorImpl\&quot; as Validator\nparticipant \&quot;CenterInfoService\&quot; as Service\nparticipant \&quot;CenterInfoRepository\&quot; as Repository\nparticipant \&quot;在庫センター情報テーブル\&quot; as DB\n\nalt 同期処理（画面遷移）\n    User -&gt; Controller: GET /admin/centerInfo/register\n    Controller --&gt; User: return /admin/centerInfo/register\n\n    User -&gt; Controller: POST /admin/centerInfo/register\n    Controller -&gt; Form: 入力バインド\n    Form -&gt; Validator: validate()\n\n    alt 入力エラーあり\n        Validator --&gt; Form: エラーメッセージ設定\n        Form --&gt; Controller: エラーメッセージ送信\n        Controller --&gt; User: エラーメッセージ表示\n        Controller --&gt; User: return /admin/centerInfo/register\n    else 正常処理\n        Controller -&gt; Service: saveCenterInfoData(form)\n\n        critical トランザクション\n            Service -&gt; Repository: saveCenterInfo(form)\n            Repository -&gt; DB: INSERT INTO center_info\n\n            alt 登録中にDBエラー発生\n                Service -&gt; DB: データロールバック\n            else 正常処理\n                Service -&gt; DB: データコミット\n            end\n        end\n\n        alt DBエラー発生時\n            Service --&gt; Controller: エラーメッセージ送信\n            Controller --&gt; User: エラーメッセージ表示\n            Controller --&gt; User: redirect: /admin/centerInfo/register\n        else 登録成功\n            Controller --&gt; User: addFlashAttribute()\n            Controller --&gt; User: redirect: /admin/centerInfo/index\n        end\n    end\nelse 非同期処理（Ajax）\n    User -&gt; Frontend: 入力フォームに入力\n    Frontend -&gt; Frontend: 入力チェック（リアルタイム）\n    alt 入力不正\n        Frontend --&gt; User: 入力エラー表示\n    else 入力正常\n        User -&gt; Frontend: 登録ボタン押下\n        Frontend -&gt; Controller: Ajax POST /admin/centerInfo/insert\n        Controller -&gt; Service: saveCenterInfoData(form)\n        Service -&gt; Repository: saveCenterInfo(form)\n        Repository -&gt; DB: INSERT INTO center_info\n        DB --&gt; Repository: 成功\n        Repository --&gt; Service: 成功\n        Service --&gt; Controller: 成功\n\n        alt HTTP 200 OK\n            Controller --&gt; Frontend: 登録完了レスポンス\n            Frontend --&gt; User: ポップアップ「登録完了」\n        else HTTP 400（バリデーションエラー）\n            Controller --&gt; Frontend: エラー詳細\n            Frontend --&gt; User: 入力エラー表示\n        else HTTP 500（サーバーエラー）\n            Controller --&gt; Frontend: サーバー内部エラー\n            Frontend --&gt; User: サーバーエラー表示\n        end\n\n        alt 通信失敗\n            Frontend -&gt; Frontend: catch(error)\n            Frontend --&gt; User: 通信失敗エラー表示\n        end\n    end\nend\n@enduml\n&quot;,&quot;format&quot;:&quot;svg&quot;}" id="LPhEX43rcYUUOAoFwwuI-1">
          <mxCell style="shape=image;noLabel=1;verticalAlign=top;aspect=fixed;imageAspect=0;image=data:image/svg+xml,PHN2ZyB4bWxucz0iaHR0cDovL3d3dy53My5vcmcvMjAwMC9zdmciIHhtbG5zOnhsaW5rPSJodHRwOi8vd3d3LnczLm9yZy8xOTk5L3hsaW5rIiBjb250ZW50U3R5bGVUeXBlPSJ0ZXh0L2NzcyIgZGF0YS1kaWFncmFtLXR5cGU9IlNFUVVFTkNFIiBoZWlnaHQ9IjE1MTFweCIgcHJlc2VydmVBc3BlY3RSYXRpbz0ibm9uZSIgc3R5bGU9IndpZHRoOjE0OTRweDtoZWlnaHQ6MTUxMXB4O2JhY2tncm91bmQ6I0ZGRkZGRjsiIHZlcnNpb249IjEuMSIgdmlld0JveD0iMCAwIDE0OTQgMTUxMSIgd2lkdGg9IjE0OTRweCIgem9vbUFuZFBhbj0ibWFnbmlmeSI+PGRlZnMvPjxnPjxyZWN0IGZpbGw9Im5vbmUiIGhlaWdodD0iMTQwOC40NjA5IiBzdHlsZT0ic3Ryb2tlOiMwMDAwMDA7c3Ryb2tlLXdpZHRoOjEuNTsiIHdpZHRoPSIxNDc3LjUiIHg9IjEwIiB5PSI1MS45ODQ0Ii8+PHJlY3QgZmlsbD0ibm9uZSIgaGVpZ2h0PSI1MzcuNzczNCIgc3R5bGU9InN0cm9rZTojMDAwMDAwO3N0cm9rZS13aWR0aDoxLjU7IiB3aWR0aD0iMTI1MS41IiB4PSIyMCIgeT0iMjE0LjQ2ODgiLz48cmVjdCBmaWxsPSJub25lIiBoZWlnaHQ9IjE3MS4yNTc4IiBzdHlsZT0ic3Ryb2tlOiMwMDAwMDA7c3Ryb2tlLXdpZHRoOjEuNTsiIHdpZHRoPSI1MjkuNSIgeD0iNzMyIiB5PSIzOTAuNzI2NiIvPjxyZWN0IGZpbGw9Im5vbmUiIGhlaWdodD0iODUuNTE1NiIgc3R5bGU9InN0cm9rZTojMDAwMDAwO3N0cm9rZS13aWR0aDoxLjU7IiB3aWR0aD0iNTA5LjUiIHg9Ijc0MiIgeT0iNDY5LjQ2ODgiLz48cmVjdCBmaWxsPSJub25lIiBoZWlnaHQ9IjE2OS4yNTc4IiBzdHlsZT0ic3Ryb2tlOiMwMDAwMDA7c3Ryb2tlLXdpZHRoOjEuNTsiIHdpZHRoPSI4NjUiIHg9IjMwIiB5PSI1NzUuOTg0NCIvPjxyZWN0IGZpbGw9Im5vbmUiIGhlaWdodD0iNjA0LjYwMTYiIHN0eWxlPSJzdHJva2U6IzAwMDAwMDtzdHJva2Utd2lkdGg6MS41OyIgd2lkdGg9IjEzNzMuNSIgeD0iMjAiIHk9Ijg0OC44NDM4Ii8+PHJlY3QgZmlsbD0ibm9uZSIgaGVpZ2h0PSIyMTAuOTQ1MyIgc3R5bGU9InN0cm9rZTojMDAwMDAwO3N0cm9rZS13aWR0aDoxLjU7IiB3aWR0aD0iMTMwMS41IiB4PSIzMCIgeT0iMTEzNi43NTc4Ii8+PHJlY3QgZmlsbD0ibm9uZSIgaGVpZ2h0PSI4NC43NDIyIiBzdHlsZT0ic3Ryb2tlOiMwMDAwMDA7c3Ryb2tlLXdpZHRoOjEuNTsiIHdpZHRoPSIxMzUzLjUiIHg9IjMwIiB5PSIxMzYxLjcwMzEiLz48Zz48dGl0bGU+VXNlcjwvdGl0bGU+PHJlY3QgZmlsbD0iIzAwMDAwMCIgZmlsbC1vcGFjaXR5PSIwLjAwMDAwIiBoZWlnaHQ9IjE0NDIuNDYwOSIgd2lkdGg9IjgiIHg9IjU3IiB5PSIzNC45ODQ0Ii8+PGxpbmUgc3R5bGU9InN0cm9rZTojMTgxODE4O3N0cm9rZS13aWR0aDowLjU7c3Ryb2tlLWRhc2hhcnJheTo1LjAsNS4wOyIgeDE9IjYxIiB4Mj0iNjEiIHkxPSIzNC45ODQ0IiB5Mj0iMTQ3Ny40NDUzIi8+PC9nPjxnPjx0aXRsZT5DZW50ZXJJbmZvQ29udHJvbGxlcjwvdGl0bGU+PHJlY3QgZmlsbD0iIzAwMDAwMCIgZmlsbC1vcGFjaXR5PSIwLjAwMDAwIiBoZWlnaHQ9IjE0NDIuNDYwOSIgd2lkdGg9IjgiIHg9IjMxNSIgeT0iMzQuOTg0NCIvPjxsaW5lIHN0eWxlPSJzdHJva2U6IzE4MTgxODtzdHJva2Utd2lkdGg6MC41O3N0cm9rZS1kYXNoYXJyYXk6NS4wLDUuMDsiIHgxPSIzMTkiIHgyPSIzMTkiIHkxPSIzNC45ODQ0IiB5Mj0iMTQ3Ny40NDUzIi8+PC9nPjxnPjx0aXRsZT5DZW50ZXJJbmZvRm9ybTwvdGl0bGU+PHJlY3QgZmlsbD0iIzAwMDAwMCIgZmlsbC1vcGFjaXR5PSIwLjAwMDAwIiBoZWlnaHQ9IjE0NDIuNDYwOSIgd2lkdGg9IjgiIHg9IjQ2OSIgeT0iMzQuOTg0NCIvPjxsaW5lIHN0eWxlPSJzdHJva2U6IzE4MTgxODtzdHJva2Utd2lkdGg6MC41O3N0cm9rZS1kYXNoYXJyYXk6NS4wLDUuMDsiIHgxPSI0NzMiIHgyPSI0NzMiIHkxPSIzNC45ODQ0IiB5Mj0iMTQ3Ny40NDUzIi8+PC9nPjxnPjx0aXRsZT5DZW50ZXJJbmZvRm9ybVZhbGlkYXRvckltcGw8L3RpdGxlPjxyZWN0IGZpbGw9IiMwMDAwMDAiIGZpbGwtb3BhY2l0eT0iMC4wMDAwMCIgaGVpZ2h0PSIxNDQyLjQ2MDkiIHdpZHRoPSI4IiB4PSI2MzYuNSIgeT0iMzQuOTg0NCIvPjxsaW5lIHN0eWxlPSJzdHJva2U6IzE4MTgxODtzdHJva2Utd2lkdGg6MC41O3N0cm9rZS1kYXNoYXJyYXk6NS4wLDUuMDsiIHgxPSI2NDAiIHgyPSI2NDAiIHkxPSIzNC45ODQ0IiB5Mj0iMTQ3Ny40NDUzIi8+PC9nPjxnPjx0aXRsZT5DZW50ZXJJbmZvU2VydmljZTwvdGl0bGU+PHJlY3QgZmlsbD0iIzAwMDAwMCIgZmlsbC1vcGFjaXR5PSIwLjAwMDAwIiBoZWlnaHQ9IjE0NDIuNDYwOSIgd2lkdGg9IjgiIHg9IjgxNC41IiB5PSIzNC45ODQ0Ii8+PGxpbmUgc3R5bGU9InN0cm9rZTojMTgxODE4O3N0cm9rZS13aWR0aDowLjU7c3Ryb2tlLWRhc2hhcnJheTo1LjAsNS4wOyIgeDE9IjgxOCIgeDI9IjgxOCIgeTE9IjM0Ljk4NDQiIHkyPSIxNDc3LjQ0NTMiLz48L2c+PGc+PHRpdGxlPkNlbnRlckluZm9SZXBvc2l0b3J5PC90aXRsZT48cmVjdCBmaWxsPSIjMDAwMDAwIiBmaWxsLW9wYWNpdHk9IjAuMDAwMDAiIGhlaWdodD0iMTQ0Mi40NjA5IiB3aWR0aD0iOCIgeD0iOTY4LjUiIHk9IjM0Ljk4NDQiLz48bGluZSBzdHlsZT0ic3Ryb2tlOiMxODE4MTg7c3Ryb2tlLXdpZHRoOjAuNTtzdHJva2UtZGFzaGFycmF5OjUuMCw1LjA7IiB4MT0iOTcyLjUiIHgyPSI5NzIuNSIgeTE9IjM0Ljk4NDQiIHkyPSIxNDc3LjQ0NTMiLz48L2c+PGc+PHRpdGxlPiYjMjIzMTI7JiMyNDIzNTsmIzEyNDc1OyYjMTI1MzE7JiMxMjQ3OTsmIzEyNTQwOyYjMjQ3NzM7JiMyMjU3NzsmIzEyNDg2OyYjMTI1NDA7JiMxMjUwMjsmIzEyNTIzOzwvdGl0bGU+PHJlY3QgZmlsbD0iIzAwMDAwMCIgZmlsbC1vcGFjaXR5PSIwLjAwMDAwIiBoZWlnaHQ9IjE0NDIuNDYwOSIgd2lkdGg9IjgiIHg9IjExNDYuNSIgeT0iMzQuOTg0NCIvPjxsaW5lIHN0eWxlPSJzdHJva2U6IzE4MTgxODtzdHJva2Utd2lkdGg6MC41O3N0cm9rZS1kYXNoYXJyYXk6NS4wLDUuMDsiIHgxPSIxMTUwLjUiIHgyPSIxMTUwLjUiIHkxPSIzNC45ODQ0IiB5Mj0iMTQ3Ny40NDUzIi8+PC9nPjxnPjx0aXRsZT5Gcm9udGVuZDwvdGl0bGU+PHJlY3QgZmlsbD0iIzAwMDAwMCIgZmlsbC1vcGFjaXR5PSIwLjAwMDAwIiBoZWlnaHQ9IjE0NDIuNDYwOSIgd2lkdGg9IjgiIHg9IjEyODIuNSIgeT0iMzQuOTg0NCIvPjxsaW5lIHN0eWxlPSJzdHJva2U6IzE4MTgxODtzdHJva2Utd2lkdGg6MC41O3N0cm9rZS1kYXNoYXJyYXk6NS4wLDUuMDsiIHgxPSIxMjg2LjUiIHgyPSIxMjg2LjUiIHkxPSIzNC45ODQ0IiB5Mj0iMTQ3Ny40NDUzIi8+PC9nPjxnIGNsYXNzPSJwYXJ0aWNpcGFudCBwYXJ0aWNpcGFudC1oZWFkIiBkYXRhLXBhcnRpY2lwYW50PSJVc2VyIj48cmVjdCBmaWxsPSIjRTJFMkYwIiBoZWlnaHQ9IjI4Ljk4NDQiIHJ4PSIyLjUiIHJ5PSIyLjUiIHN0eWxlPSJzdHJva2U6IzE4MTgxODtzdHJva2Utd2lkdGg6MC41OyIgd2lkdGg9IjQyIiB4PSI0MCIgeT0iNSIvPjx0ZXh0IGZpbGw9IiMwMDAwMDAiIGZvbnQtZmFtaWx5PSJzYW5zLXNlcmlmIiBmb250LXNpemU9IjE0IiBsZW5ndGhBZGp1c3Q9InNwYWNpbmciIHRleHRMZW5ndGg9IjI4IiB4PSI0NyIgeT0iMjUuMjM0NCI+VXNlcjwvdGV4dD48L2c+PGcgY2xhc3M9InBhcnRpY2lwYW50IHBhcnRpY2lwYW50LXRhaWwiIGRhdGEtcGFydGljaXBhbnQ9IlVzZXIiPjxyZWN0IGZpbGw9IiNFMkUyRjAiIGhlaWdodD0iMjguOTg0NCIgcng9IjIuNSIgcnk9IjIuNSIgc3R5bGU9InN0cm9rZTojMTgxODE4O3N0cm9rZS13aWR0aDowLjU7IiB3aWR0aD0iNDIiIHg9IjQwIiB5PSIxNDc2LjQ0NTMiLz48dGV4dCBmaWxsPSIjMDAwMDAwIiBmb250LWZhbWlseT0ic2Fucy1zZXJpZiIgZm9udC1zaXplPSIxNCIgbGVuZ3RoQWRqdXN0PSJzcGFjaW5nIiB0ZXh0TGVuZ3RoPSIyOCIgeD0iNDciIHk9IjE0OTYuNjc5NyI+VXNlcjwvdGV4dD48L2c+PGcgY2xhc3M9InBhcnRpY2lwYW50IHBhcnRpY2lwYW50LWhlYWQiIGRhdGEtcGFydGljaXBhbnQ9IkNvbnRyb2xsZXIiPjxyZWN0IGZpbGw9IiNFMkUyRjAiIGhlaWdodD0iMjguOTg0NCIgcng9IjIuNSIgcnk9IjIuNSIgc3R5bGU9InN0cm9rZTojMTgxODE4O3N0cm9rZS13aWR0aDowLjU7IiB3aWR0aD0iMTU0IiB4PSIyNDIiIHk9IjUiLz48dGV4dCBmaWxsPSIjMDAwMDAwIiBmb250LWZhbWlseT0ic2Fucy1zZXJpZiIgZm9udC1zaXplPSIxNCIgbGVuZ3RoQWRqdXN0PSJzcGFjaW5nIiB0ZXh0TGVuZ3RoPSIxNDAiIHg9IjI0OSIgeT0iMjUuMjM0NCI+Q2VudGVySW5mb0NvbnRyb2xsZXI8L3RleHQ+PC9nPjxnIGNsYXNzPSJwYXJ0aWNpcGFudCBwYXJ0aWNpcGFudC10YWlsIiBkYXRhLXBhcnRpY2lwYW50PSJDb250cm9sbGVyIj48cmVjdCBmaWxsPSIjRTJFMkYwIiBoZWlnaHQ9IjI4Ljk4NDQiIHJ4PSIyLjUiIHJ5PSIyLjUiIHN0eWxlPSJzdHJva2U6IzE4MTgxODtzdHJva2Utd2lkdGg6MC41OyIgd2lkdGg9IjE1NCIgeD0iMjQyIiB5PSIxNDc2LjQ0NTMiLz48dGV4dCBmaWxsPSIjMDAwMDAwIiBmb250LWZhbWlseT0ic2Fucy1zZXJpZiIgZm9udC1zaXplPSIxNCIgbGVuZ3RoQWRqdXN0PSJzcGFjaW5nIiB0ZXh0TGVuZ3RoPSIxNDAiIHg9IjI0OSIgeT0iMTQ5Ni42Nzk3Ij5DZW50ZXJJbmZvQ29udHJvbGxlcjwvdGV4dD48L2c+PGcgY2xhc3M9InBhcnRpY2lwYW50IHBhcnRpY2lwYW50LWhlYWQiIGRhdGEtcGFydGljaXBhbnQ9IkZvcm0iPjxyZWN0IGZpbGw9IiNFMkUyRjAiIGhlaWdodD0iMjguOTg0NCIgcng9IjIuNSIgcnk9IjIuNSIgc3R5bGU9InN0cm9rZTojMTgxODE4O3N0cm9rZS13aWR0aDowLjU7IiB3aWR0aD0iMTEyIiB4PSI0MTciIHk9IjUiLz48dGV4dCBmaWxsPSIjMDAwMDAwIiBmb250LWZhbWlseT0ic2Fucy1zZXJpZiIgZm9udC1zaXplPSIxNCIgbGVuZ3RoQWRqdXN0PSJzcGFjaW5nIiB0ZXh0TGVuZ3RoPSI5OCIgeD0iNDI0IiB5PSIyNS4yMzQ0Ij5DZW50ZXJJbmZvRm9ybTwvdGV4dD48L2c+PGcgY2xhc3M9InBhcnRpY2lwYW50IHBhcnRpY2lwYW50LXRhaWwiIGRhdGEtcGFydGljaXBhbnQ9IkZvcm0iPjxyZWN0IGZpbGw9IiNFMkUyRjAiIGhlaWdodD0iMjguOTg0NCIgcng9IjIuNSIgcnk9IjIuNSIgc3R5bGU9InN0cm9rZTojMTgxODE4O3N0cm9rZS13aWR0aDowLjU7IiB3aWR0aD0iMTEyIiB4PSI0MTciIHk9IjE0NzYuNDQ1MyIvPjx0ZXh0IGZpbGw9IiMwMDAwMDAiIGZvbnQtZmFtaWx5PSJzYW5zLXNlcmlmIiBmb250LXNpemU9IjE0IiBsZW5ndGhBZGp1c3Q9InNwYWNpbmciIHRleHRMZW5ndGg9Ijk4IiB4PSI0MjQiIHk9IjE0OTYuNjc5NyI+Q2VudGVySW5mb0Zvcm08L3RleHQ+PC9nPjxnIGNsYXNzPSJwYXJ0aWNpcGFudCBwYXJ0aWNpcGFudC1oZWFkIiBkYXRhLXBhcnRpY2lwYW50PSJWYWxpZGF0b3IiPjxyZWN0IGZpbGw9IiNFMkUyRjAiIGhlaWdodD0iMjguOTg0NCIgcng9IjIuNSIgcnk9IjIuNSIgc3R5bGU9InN0cm9rZTojMTgxODE4O3N0cm9rZS13aWR0aDowLjU7IiB3aWR0aD0iMjAzIiB4PSI1MzkiIHk9IjUiLz48dGV4dCBmaWxsPSIjMDAwMDAwIiBmb250LWZhbWlseT0ic2Fucy1zZXJpZiIgZm9udC1zaXplPSIxNCIgbGVuZ3RoQWRqdXN0PSJzcGFjaW5nIiB0ZXh0TGVuZ3RoPSIxODkiIHg9IjU0NiIgeT0iMjUuMjM0NCI+Q2VudGVySW5mb0Zvcm1WYWxpZGF0b3JJbXBsPC90ZXh0PjwvZz48ZyBjbGFzcz0icGFydGljaXBhbnQgcGFydGljaXBhbnQtdGFpbCIgZGF0YS1wYXJ0aWNpcGFudD0iVmFsaWRhdG9yIj48cmVjdCBmaWxsPSIjRTJFMkYwIiBoZWlnaHQ9IjI4Ljk4NDQiIHJ4PSIyLjUiIHJ5PSIyLjUiIHN0eWxlPSJzdHJva2U6IzE4MTgxODtzdHJva2Utd2lkdGg6MC41OyIgd2lkdGg9IjIwMyIgeD0iNTM5IiB5PSIxNDc2LjQ0NTMiLz48dGV4dCBmaWxsPSIjMDAwMDAwIiBmb250LWZhbWlseT0ic2Fucy1zZXJpZiIgZm9udC1zaXplPSIxNCIgbGVuZ3RoQWRqdXN0PSJzcGFjaW5nIiB0ZXh0TGVuZ3RoPSIxODkiIHg9IjU0NiIgeT0iMTQ5Ni42Nzk3Ij5DZW50ZXJJbmZvRm9ybVZhbGlkYXRvckltcGw8L3RleHQ+PC9nPjxnIGNsYXNzPSJwYXJ0aWNpcGFudCBwYXJ0aWNpcGFudC1oZWFkIiBkYXRhLXBhcnRpY2lwYW50PSJTZXJ2aWNlIj48cmVjdCBmaWxsPSIjRTJFMkYwIiBoZWlnaHQ9IjI4Ljk4NDQiIHJ4PSIyLjUiIHJ5PSIyLjUiIHN0eWxlPSJzdHJva2U6IzE4MTgxODtzdHJva2Utd2lkdGg6MC41OyIgd2lkdGg9IjEzMyIgeD0iNzUyIiB5PSI1Ii8+PHRleHQgZmlsbD0iIzAwMDAwMCIgZm9udC1mYW1pbHk9InNhbnMtc2VyaWYiIGZvbnQtc2l6ZT0iMTQiIGxlbmd0aEFkanVzdD0ic3BhY2luZyIgdGV4dExlbmd0aD0iMTE5IiB4PSI3NTkiIHk9IjI1LjIzNDQiPkNlbnRlckluZm9TZXJ2aWNlPC90ZXh0PjwvZz48ZyBjbGFzcz0icGFydGljaXBhbnQgcGFydGljaXBhbnQtdGFpbCIgZGF0YS1wYXJ0aWNpcGFudD0iU2VydmljZSI+PHJlY3QgZmlsbD0iI0UyRTJGMCIgaGVpZ2h0PSIyOC45ODQ0IiByeD0iMi41IiByeT0iMi41IiBzdHlsZT0ic3Ryb2tlOiMxODE4MTg7c3Ryb2tlLXdpZHRoOjAuNTsiIHdpZHRoPSIxMzMiIHg9Ijc1MiIgeT0iMTQ3Ni40NDUzIi8+PHRleHQgZmlsbD0iIzAwMDAwMCIgZm9udC1mYW1pbHk9InNhbnMtc2VyaWYiIGZvbnQtc2l6ZT0iMTQiIGxlbmd0aEFkanVzdD0ic3BhY2luZyIgdGV4dExlbmd0aD0iMTE5IiB4PSI3NTkiIHk9IjE0OTYuNjc5NyI+Q2VudGVySW5mb1NlcnZpY2U8L3RleHQ+PC9nPjxnIGNsYXNzPSJwYXJ0aWNpcGFudCBwYXJ0aWNpcGFudC1oZWFkIiBkYXRhLXBhcnRpY2lwYW50PSJSZXBvc2l0b3J5Ij48cmVjdCBmaWxsPSIjRTJFMkYwIiBoZWlnaHQ9IjI4Ljk4NDQiIHJ4PSIyLjUiIHJ5PSIyLjUiIHN0eWxlPSJzdHJva2U6IzE4MTgxODtzdHJva2Utd2lkdGg6MC41OyIgd2lkdGg9IjE1NCIgeD0iODk1LjUiIHk9IjUiLz48dGV4dCBmaWxsPSIjMDAwMDAwIiBmb250LWZhbWlseT0ic2Fucy1zZXJpZiIgZm9udC1zaXplPSIxNCIgbGVuZ3RoQWRqdXN0PSJzcGFjaW5nIiB0ZXh0TGVuZ3RoPSIxNDAiIHg9IjkwMi41IiB5PSIyNS4yMzQ0Ij5DZW50ZXJJbmZvUmVwb3NpdG9yeTwvdGV4dD48L2c+PGcgY2xhc3M9InBhcnRpY2lwYW50IHBhcnRpY2lwYW50LXRhaWwiIGRhdGEtcGFydGljaXBhbnQ9IlJlcG9zaXRvcnkiPjxyZWN0IGZpbGw9IiNFMkUyRjAiIGhlaWdodD0iMjguOTg0NCIgcng9IjIuNSIgcnk9IjIuNSIgc3R5bGU9InN0cm9rZTojMTgxODE4O3N0cm9rZS13aWR0aDowLjU7IiB3aWR0aD0iMTU0IiB4PSI4OTUuNSIgeT0iMTQ3Ni40NDUzIi8+PHRleHQgZmlsbD0iIzAwMDAwMCIgZm9udC1mYW1pbHk9InNhbnMtc2VyaWYiIGZvbnQtc2l6ZT0iMTQiIGxlbmd0aEFkanVzdD0ic3BhY2luZyIgdGV4dExlbmd0aD0iMTQwIiB4PSI5MDIuNSIgeT0iMTQ5Ni42Nzk3Ij5DZW50ZXJJbmZvUmVwb3NpdG9yeTwvdGV4dD48L2c+PGcgY2xhc3M9InBhcnRpY2lwYW50IHBhcnRpY2lwYW50LWhlYWQiIGRhdGEtcGFydGljaXBhbnQ9IkRCIj48cmVjdCBmaWxsPSIjRTJFMkYwIiBoZWlnaHQ9IjI4Ljk4NDQiIHJ4PSIyLjUiIHJ5PSIyLjUiIHN0eWxlPSJzdHJva2U6IzE4MTgxODtzdHJva2Utd2lkdGg6MC41OyIgd2lkdGg9IjE4MiIgeD0iMTA1OS41IiB5PSI1Ii8+PHRleHQgZmlsbD0iIzAwMDAwMCIgZm9udC1mYW1pbHk9InNhbnMtc2VyaWYiIGZvbnQtc2l6ZT0iMTQiIGxlbmd0aEFkanVzdD0ic3BhY2luZyIgdGV4dExlbmd0aD0iMTY4IiB4PSIxMDY2LjUiIHk9IjI1LjIzNDQiPiYjMjIzMTI7JiMyNDIzNTsmIzEyNDc1OyYjMTI1MzE7JiMxMjQ3OTsmIzEyNTQwOyYjMjQ3NzM7JiMyMjU3NzsmIzEyNDg2OyYjMTI1NDA7JiMxMjUwMjsmIzEyNTIzOzwvdGV4dD48L2c+PGcgY2xhc3M9InBhcnRpY2lwYW50IHBhcnRpY2lwYW50LXRhaWwiIGRhdGEtcGFydGljaXBhbnQ9IkRCIj48cmVjdCBmaWxsPSIjRTJFMkYwIiBoZWlnaHQ9IjI4Ljk4NDQiIHJ4PSIyLjUiIHJ5PSIyLjUiIHN0eWxlPSJzdHJva2U6IzE4MTgxODtzdHJva2Utd2lkdGg6MC41OyIgd2lkdGg9IjE4MiIgeD0iMTA1OS41IiB5PSIxNDc2LjQ0NTMiLz48dGV4dCBmaWxsPSIjMDAwMDAwIiBmb250LWZhbWlseT0ic2Fucy1zZXJpZiIgZm9udC1zaXplPSIxNCIgbGVuZ3RoQWRqdXN0PSJzcGFjaW5nIiB0ZXh0TGVuZ3RoPSIxNjgiIHg9IjEwNjYuNSIgeT0iMTQ5Ni42Nzk3Ij4mIzIyMzEyOyYjMjQyMzU7JiMxMjQ3NTsmIzEyNTMxOyYjMTI0Nzk7JiMxMjU0MDsmIzI0NzczOyYjMjI1Nzc7JiMxMjQ4NjsmIzEyNTQwOyYjMTI1MDI7JiMxMjUyMzs8L3RleHQ+PC9nPjxnIGNsYXNzPSJwYXJ0aWNpcGFudCBwYXJ0aWNpcGFudC1oZWFkIiBkYXRhLXBhcnRpY2lwYW50PSJGcm9udGVuZCI+PHJlY3QgZmlsbD0iI0UyRTJGMCIgaGVpZ2h0PSIyOC45ODQ0IiByeD0iMi41IiByeT0iMi41IiBzdHlsZT0ic3Ryb2tlOiMxODE4MTg7c3Ryb2tlLXdpZHRoOjAuNTsiIHdpZHRoPSI3MCIgeD0iMTI1MS41IiB5PSI1Ii8+PHRleHQgZmlsbD0iIzAwMDAwMCIgZm9udC1mYW1pbHk9InNhbnMtc2VyaWYiIGZvbnQtc2l6ZT0iMTQiIGxlbmd0aEFkanVzdD0ic3BhY2luZyIgdGV4dExlbmd0aD0iNTYiIHg9IjEyNTguNSIgeT0iMjUuMjM0NCI+RnJvbnRlbmQ8L3RleHQ+PC9nPjxnIGNsYXNzPSJwYXJ0aWNpcGFudCBwYXJ0aWNpcGFudC10YWlsIiBkYXRhLXBhcnRpY2lwYW50PSJGcm9udGVuZCI+PHJlY3QgZmlsbD0iI0UyRTJGMCIgaGVpZ2h0PSIyOC45ODQ0IiByeD0iMi41IiByeT0iMi41IiBzdHlsZT0ic3Ryb2tlOiMxODE4MTg7c3Ryb2tlLXdpZHRoOjAuNTsiIHdpZHRoPSI3MCIgeD0iMTI1MS41IiB5PSIxNDc2LjQ0NTMiLz48dGV4dCBmaWxsPSIjMDAwMDAwIiBmb250LWZhbWlseT0ic2Fucy1zZXJpZiIgZm9udC1zaXplPSIxNCIgbGVuZ3RoQWRqdXN0PSJzcGFjaW5nIiB0ZXh0TGVuZ3RoPSI1NiIgeD0iMTI1OC41IiB5PSIxNDk2LjY3OTciPkZyb250ZW5kPC90ZXh0PjwvZz48cGF0aCBkPSJNMTAsNTEuOTg0NCBMNzQuNSw1MS45ODQ0IEw3NC41LDU3Ljg5ODQgTDY0LjUsNjcuODk4NCBMMTAsNjcuODk4NCBMMTAsNTEuOTg0NCIgZmlsbD0iI0VFRUVFRSIgc3R5bGU9InN0cm9rZTojMDAwMDAwO3N0cm9rZS13aWR0aDoxLjU7Ii8+PHJlY3QgZmlsbD0ibm9uZSIgaGVpZ2h0PSIxNDA4LjQ2MDkiIHN0eWxlPSJzdHJva2U6IzAwMDAwMDtzdHJva2Utd2lkdGg6MS41OyIgd2lkdGg9IjE0NzcuNSIgeD0iMTAiIHk9IjUxLjk4NDQiLz48dGV4dCBmaWxsPSIjMDAwMDAwIiBmb250LWZhbWlseT0ic2Fucy1zZXJpZiIgZm9udC1zaXplPSIxMyIgZm9udC13ZWlnaHQ9ImJvbGQiIGxlbmd0aEFkanVzdD0ic3BhY2luZyIgdGV4dExlbmd0aD0iMTkuNSIgeD0iMjUiIHk9IjY1LjI3MzQiPmFsdDwvdGV4dD48dGV4dCBmaWxsPSIjMDAwMDAwIiBmb250LWZhbWlseT0ic2Fucy1zZXJpZiIgZm9udC1zaXplPSIxMSIgZm9udC13ZWlnaHQ9ImJvbGQiIGxlbmd0aEFkanVzdD0ic3BhY2luZyIgdGV4dExlbmd0aD0iMTIxIiB4PSI4OS41IiB5PSI2NC4zODI4Ij5bJiMyMTUxNjsmIzI2Mzk5OyYjMjA5NjY7JiMyOTcwMjsmIzY1Mjg4OyYjMzAwMTE7JiMzODc1NDsmIzM2OTgzOyYjMzEyMjc7JiM2NTI4OTtdPC90ZXh0PjxnIGNsYXNzPSJtZXNzYWdlIiBkYXRhLXBhcnRpY2lwYW50LTE9IlVzZXIiIGRhdGEtcGFydGljaXBhbnQtMj0iQ29udHJvbGxlciI+PHBvbHlnb24gZmlsbD0iIzE4MTgxOCIgcG9pbnRzPSIzMDcsODMuODEyNSwzMTcsODcuODEyNSwzMDcsOTEuODEyNSwzMTEsODcuODEyNSIgc3R5bGU9InN0cm9rZTojMTgxODE4O3N0cm9rZS13aWR0aDoxOyIvPjxsaW5lIHN0eWxlPSJzdHJva2U6IzE4MTgxODtzdHJva2Utd2lkdGg6MTsiIHgxPSI2MSIgeDI9IjMxMyIgeTE9Ijg3LjgxMjUiIHkyPSI4Ny44MTI1Ii8+PHRleHQgZmlsbD0iIzAwMDAwMCIgZm9udC1mYW1pbHk9InNhbnMtc2VyaWYiIGZvbnQtc2l6ZT0iMTMiIGxlbmd0aEFkanVzdD0ic3BhY2luZyIgdGV4dExlbmd0aD0iMTk1IiB4PSI2OCIgeT0iODQuMTg3NSI+R0VUIC9hZG1pbi9jZW50ZXJJbmZvL3JlZ2lzdGVyPC90ZXh0PjwvZz48ZyBjbGFzcz0ibWVzc2FnZSIgZGF0YS1wYXJ0aWNpcGFudC0xPSJDb250cm9sbGVyIiBkYXRhLXBhcnRpY2lwYW50LTI9IlVzZXIiPjxwb2x5Z29uIGZpbGw9IiMxODE4MTgiIHBvaW50cz0iNzIsMTExLjcyNjYsNjIsMTE1LjcyNjYsNzIsMTE5LjcyNjYsNjgsMTE1LjcyNjYiIHN0eWxlPSJzdHJva2U6IzE4MTgxODtzdHJva2Utd2lkdGg6MTsiLz48bGluZSBzdHlsZT0ic3Ryb2tlOiMxODE4MTg7c3Ryb2tlLXdpZHRoOjE7c3Ryb2tlLWRhc2hhcnJheToyLjAsMi4wOyIgeDE9IjY2IiB4Mj0iMzE4IiB5MT0iMTE1LjcyNjYiIHkyPSIxMTUuNzI2NiIvPjx0ZXh0IGZpbGw9IiMwMDAwMDAiIGZvbnQtZmFtaWx5PSJzYW5zLXNlcmlmIiBmb250LXNpemU9IjEzIiBsZW5ndGhBZGp1c3Q9InNwYWNpbmciIHRleHRMZW5ndGg9IjIxNC41IiB4PSI3OCIgeT0iMTEyLjEwMTYiPnJldHVybiAvYWRtaW4vY2VudGVySW5mby9yZWdpc3RlcjwvdGV4dD48L2c+PGcgY2xhc3M9Im1lc3NhZ2UiIGRhdGEtcGFydGljaXBhbnQtMT0iVXNlciIgZGF0YS1wYXJ0aWNpcGFudC0yPSJDb250cm9sbGVyIj48cG9seWdvbiBmaWxsPSIjMTgxODE4IiBwb2ludHM9IjMwNywxMzkuNjQwNiwzMTcsMTQzLjY0MDYsMzA3LDE0Ny42NDA2LDMxMSwxNDMuNjQwNiIgc3R5bGU9InN0cm9rZTojMTgxODE4O3N0cm9rZS13aWR0aDoxOyIvPjxsaW5lIHN0eWxlPSJzdHJva2U6IzE4MTgxODtzdHJva2Utd2lkdGg6MTsiIHgxPSI2MSIgeDI9IjMxMyIgeTE9IjE0My42NDA2IiB5Mj0iMTQzLjY0MDYiLz48dGV4dCBmaWxsPSIjMDAwMDAwIiBmb250LWZhbWlseT0ic2Fucy1zZXJpZiIgZm9udC1zaXplPSIxMyIgbGVuZ3RoQWRqdXN0PSJzcGFjaW5nIiB0ZXh0TGVuZ3RoPSIyMDEuNSIgeD0iNjgiIHk9IjE0MC4wMTU2Ij5QT1NUIC9hZG1pbi9jZW50ZXJJbmZvL3JlZ2lzdGVyPC90ZXh0PjwvZz48ZyBjbGFzcz0ibWVzc2FnZSIgZGF0YS1wYXJ0aWNpcGFudC0xPSJDb250cm9sbGVyIiBkYXRhLXBhcnRpY2lwYW50LTI9IkZvcm0iPjxwb2x5Z29uIGZpbGw9IiMxODE4MTgiIHBvaW50cz0iNDYxLDE2Ny41NTQ3LDQ3MSwxNzEuNTU0Nyw0NjEsMTc1LjU1NDcsNDY1LDE3MS41NTQ3IiBzdHlsZT0ic3Ryb2tlOiMxODE4MTg7c3Ryb2tlLXdpZHRoOjE7Ii8+PGxpbmUgc3R5bGU9InN0cm9rZTojMTgxODE4O3N0cm9rZS13aWR0aDoxOyIgeDE9IjMxOSIgeDI9IjQ2NyIgeTE9IjE3MS41NTQ3IiB5Mj0iMTcxLjU1NDciLz48dGV4dCBmaWxsPSIjMDAwMDAwIiBmb250LWZhbWlseT0ic2Fucy1zZXJpZiIgZm9udC1zaXplPSIxMyIgbGVuZ3RoQWRqdXN0PSJzcGFjaW5nIiB0ZXh0TGVuZ3RoPSI3OCIgeD0iMzI2IiB5PSIxNjcuOTI5NyI+JiMyMDgzNzsmIzIxMTQ3OyYjMTI0OTY7JiMxMjQ1MjsmIzEyNTMxOyYjMTI0ODk7PC90ZXh0PjwvZz48ZyBjbGFzcz0ibWVzc2FnZSIgZGF0YS1wYXJ0aWNpcGFudC0xPSJGb3JtIiBkYXRhLXBhcnRpY2lwYW50LTI9IlZhbGlkYXRvciI+PHBvbHlnb24gZmlsbD0iIzE4MTgxOCIgcG9pbnRzPSI2MjguNSwxOTUuNDY4OCw2MzguNSwxOTkuNDY4OCw2MjguNSwyMDMuNDY4OCw2MzIuNSwxOTkuNDY4OCIgc3R5bGU9InN0cm9rZTojMTgxODE4O3N0cm9rZS13aWR0aDoxOyIvPjxsaW5lIHN0eWxlPSJzdHJva2U6IzE4MTgxODtzdHJva2Utd2lkdGg6MTsiIHgxPSI0NzMiIHgyPSI2MzQuNSIgeTE9IjE5OS40Njg4IiB5Mj0iMTk5LjQ2ODgiLz48dGV4dCBmaWxsPSIjMDAwMDAwIiBmb250LWZhbWlseT0ic2Fucy1zZXJpZiIgZm9udC1zaXplPSIxMyIgbGVuZ3RoQWRqdXN0PSJzcGFjaW5nIiB0ZXh0TGVuZ3RoPSI2NSIgeD0iNDgwIiB5PSIxOTUuODQzOCI+dmFsaWRhdGUoKTwvdGV4dD48L2c+PHBhdGggZD0iTTIwLDIxNC40Njg4IEw4NC41LDIxNC40Njg4IEw4NC41LDIyMC4zODI4IEw3NC41LDIzMC4zODI4IEwyMCwyMzAuMzgyOCBMMjAsMjE0LjQ2ODgiIGZpbGw9IiNFRUVFRUUiIHN0eWxlPSJzdHJva2U6IzAwMDAwMDtzdHJva2Utd2lkdGg6MS41OyIvPjxyZWN0IGZpbGw9Im5vbmUiIGhlaWdodD0iNTM3Ljc3MzQiIHN0eWxlPSJzdHJva2U6IzAwMDAwMDtzdHJva2Utd2lkdGg6MS41OyIgd2lkdGg9IjEyNTEuNSIgeD0iMjAiIHk9IjIxNC40Njg4Ii8+PHRleHQgZmlsbD0iIzAwMDAwMCIgZm9udC1mYW1pbHk9InNhbnMtc2VyaWYiIGZvbnQtc2l6ZT0iMTMiIGZvbnQtd2VpZ2h0PSJib2xkIiBsZW5ndGhBZGp1c3Q9InNwYWNpbmciIHRleHRMZW5ndGg9IjE5LjUiIHg9IjM1IiB5PSIyMjcuNzU3OCI+YWx0PC90ZXh0Pjx0ZXh0IGZpbGw9IiMwMDAwMDAiIGZvbnQtZmFtaWx5PSJzYW5zLXNlcmlmIiBmb250LXNpemU9IjExIiBmb250LXdlaWdodD0iYm9sZCIgbGVuZ3RoQWRqdXN0PSJzcGFjaW5nIiB0ZXh0TGVuZ3RoPSI4OCIgeD0iOTkuNSIgeT0iMjI2Ljg2NzIiPlsmIzIwODM3OyYjMjExNDc7JiMxMjQ1NjsmIzEyNTIxOyYjMTI1NDA7JiMxMjM1NDsmIzEyNDI2O108L3RleHQ+PGcgY2xhc3M9Im1lc3NhZ2UiIGRhdGEtcGFydGljaXBhbnQtMT0iVmFsaWRhdG9yIiBkYXRhLXBhcnRpY2lwYW50LTI9IkZvcm0iPjxwb2x5Z29uIGZpbGw9IiMxODE4MTgiIHBvaW50cz0iNDg0LDI0Ni4yOTY5LDQ3NCwyNTAuMjk2OSw0ODQsMjU0LjI5NjksNDgwLDI1MC4yOTY5IiBzdHlsZT0ic3Ryb2tlOiMxODE4MTg7c3Ryb2tlLXdpZHRoOjE7Ii8+PGxpbmUgc3R5bGU9InN0cm9rZTojMTgxODE4O3N0cm9rZS13aWR0aDoxO3N0cm9rZS1kYXNoYXJyYXk6Mi4wLDIuMDsiIHgxPSI0NzgiIHgyPSI2MzkuNSIgeTE9IjI1MC4yOTY5IiB5Mj0iMjUwLjI5NjkiLz48dGV4dCBmaWxsPSIjMDAwMDAwIiBmb250LWZhbWlseT0ic2Fucy1zZXJpZiIgZm9udC1zaXplPSIxMyIgbGVuZ3RoQWRqdXN0PSJzcGFjaW5nIiB0ZXh0TGVuZ3RoPSIxMzAiIHg9IjQ5MCIgeT0iMjQ2LjY3MTkiPiYjMTI0NTY7JiMxMjUyMTsmIzEyNTQwOyYjMTI1MTM7JiMxMjQ4MzsmIzEyNDc1OyYjMTI1NDA7JiMxMjQ3MjsmIzM1MzczOyYjMjM0NTA7PC90ZXh0PjwvZz48ZyBjbGFzcz0ibWVzc2FnZSIgZGF0YS1wYXJ0aWNpcGFudC0xPSJGb3JtIiBkYXRhLXBhcnRpY2lwYW50LTI9IkNvbnRyb2xsZXIiPjxwb2x5Z29uIGZpbGw9IiMxODE4MTgiIHBvaW50cz0iMzMwLDI3NC4yMTA5LDMyMCwyNzguMjEwOSwzMzAsMjgyLjIxMDksMzI2LDI3OC4yMTA5IiBzdHlsZT0ic3Ryb2tlOiMxODE4MTg7c3Ryb2tlLXdpZHRoOjE7Ii8+PGxpbmUgc3R5bGU9InN0cm9rZTojMTgxODE4O3N0cm9rZS13aWR0aDoxO3N0cm9rZS1kYXNoYXJyYXk6Mi4wLDIuMDsiIHgxPSIzMjQiIHgyPSI0NzIiIHkxPSIyNzguMjEwOSIgeTI9IjI3OC4yMTA5Ii8+PHRleHQgZmlsbD0iIzAwMDAwMCIgZm9udC1mYW1pbHk9InNhbnMtc2VyaWYiIGZvbnQtc2l6ZT0iMTMiIGxlbmd0aEFkanVzdD0ic3BhY2luZyIgdGV4dExlbmd0aD0iMTMwIiB4PSIzMzYiIHk9IjI3NC41ODU5Ij4mIzEyNDU2OyYjMTI1MjE7JiMxMjU0MDsmIzEyNTEzOyYjMTI0ODM7JiMxMjQ3NTsmIzEyNTQwOyYjMTI0NzI7JiMzNjg2NTsmIzIwNDQ5OzwvdGV4dD48L2c+PGcgY2xhc3M9Im1lc3NhZ2UiIGRhdGEtcGFydGljaXBhbnQtMT0iQ29udHJvbGxlciIgZGF0YS1wYXJ0aWNpcGFudC0yPSJVc2VyIj48cG9seWdvbiBmaWxsPSIjMTgxODE4IiBwb2ludHM9IjcyLDMwMi4xMjUsNjIsMzA2LjEyNSw3MiwzMTAuMTI1LDY4LDMwNi4xMjUiIHN0eWxlPSJzdHJva2U6IzE4MTgxODtzdHJva2Utd2lkdGg6MTsiLz48bGluZSBzdHlsZT0ic3Ryb2tlOiMxODE4MTg7c3Ryb2tlLXdpZHRoOjE7c3Ryb2tlLWRhc2hhcnJheToyLjAsMi4wOyIgeDE9IjY2IiB4Mj0iMzE4IiB5MT0iMzA2LjEyNSIgeTI9IjMwNi4xMjUiLz48dGV4dCBmaWxsPSIjMDAwMDAwIiBmb250LWZhbWlseT0ic2Fucy1zZXJpZiIgZm9udC1zaXplPSIxMyIgbGVuZ3RoQWRqdXN0PSJzcGFjaW5nIiB0ZXh0TGVuZ3RoPSIxMzAiIHg9Ijc4IiB5PSIzMDIuNSI+JiMxMjQ1NjsmIzEyNTIxOyYjMTI1NDA7JiMxMjUxMzsmIzEyNDgzOyYjMTI0NzU7JiMxMjU0MDsmIzEyNDcyOyYjMzQ5MjA7JiMzMTAzNDs8L3RleHQ+PC9nPjxnIGNsYXNzPSJtZXNzYWdlIiBkYXRhLXBhcnRpY2lwYW50LTE9IkNvbnRyb2xsZXIiIGRhdGEtcGFydGljaXBhbnQtMj0iVXNlciI+PHBvbHlnb24gZmlsbD0iIzE4MTgxOCIgcG9pbnRzPSI3MiwzMzAuMDM5MSw2MiwzMzQuMDM5MSw3MiwzMzguMDM5MSw2OCwzMzQuMDM5MSIgc3R5bGU9InN0cm9rZTojMTgxODE4O3N0cm9rZS13aWR0aDoxOyIvPjxsaW5lIHN0eWxlPSJzdHJva2U6IzE4MTgxODtzdHJva2Utd2lkdGg6MTtzdHJva2UtZGFzaGFycmF5OjIuMCwyLjA7IiB4MT0iNjYiIHgyPSIzMTgiIHkxPSIzMzQuMDM5MSIgeTI9IjMzNC4wMzkxIi8+PHRleHQgZmlsbD0iIzAwMDAwMCIgZm9udC1mYW1pbHk9InNhbnMtc2VyaWYiIGZvbnQtc2l6ZT0iMTMiIGxlbmd0aEFkanVzdD0ic3BhY2luZyIgdGV4dExlbmd0aD0iMjE0LjUiIHg9Ijc4IiB5PSIzMzAuNDE0MSI+cmV0dXJuIC9hZG1pbi9jZW50ZXJJbmZvL3JlZ2lzdGVyPC90ZXh0PjwvZz48bGluZSBzdHlsZT0ic3Ryb2tlOiMwMDAwMDA7c3Ryb2tlLXdpZHRoOjE7c3Ryb2tlLWRhc2hhcnJheToyLjAsMi4wOyIgeDE9IjIwIiB4Mj0iMTI3MS41IiB5MT0iMzQzLjAzOTEiIHkyPSIzNDMuMDM5MSIvPjx0ZXh0IGZpbGw9IiMwMDAwMDAiIGZvbnQtZmFtaWx5PSJzYW5zLXNlcmlmIiBmb250LXNpemU9IjExIiBmb250LXdlaWdodD0iYm9sZCIgbGVuZ3RoQWRqdXN0PSJzcGFjaW5nIiB0ZXh0TGVuZ3RoPSI1NSIgeD0iMjUiIHk9IjM1My40Mzc1Ij5bJiMyNzQ5MTsmIzI0MTIwOyYjMjA5NjY7JiMyOTcwMjtdPC90ZXh0PjxnIGNsYXNzPSJtZXNzYWdlIiBkYXRhLXBhcnRpY2lwYW50LTE9IkNvbnRyb2xsZXIiIGRhdGEtcGFydGljaXBhbnQtMj0iU2VydmljZSI+PHBvbHlnb24gZmlsbD0iIzE4MTgxOCIgcG9pbnRzPSI4MDYuNSwzNzEuNzI2Niw4MTYuNSwzNzUuNzI2Niw4MDYuNSwzNzkuNzI2Niw4MTAuNSwzNzUuNzI2NiIgc3R5bGU9InN0cm9rZTojMTgxODE4O3N0cm9rZS13aWR0aDoxOyIvPjxsaW5lIHN0eWxlPSJzdHJva2U6IzE4MTgxODtzdHJva2Utd2lkdGg6MTsiIHgxPSIzMTkiIHgyPSI4MTIuNSIgeTE9IjM3NS43MjY2IiB5Mj0iMzc1LjcyNjYiLz48dGV4dCBmaWxsPSIjMDAwMDAwIiBmb250LWZhbWlseT0ic2Fucy1zZXJpZiIgZm9udC1zaXplPSIxMyIgbGVuZ3RoQWRqdXN0PSJzcGFjaW5nIiB0ZXh0TGVuZ3RoPSIxNTYiIHg9IjMyNiIgeT0iMzcyLjEwMTYiPnNhdmVDZW50ZXJJbmZvRGF0YShmb3JtKTwvdGV4dD48L2c+PHBhdGggZD0iTTczMiwzOTAuNzI2NiBMODI5LDM5MC43MjY2IEw4MjksMzk2LjY0MDYgTDgxOSw0MDYuNjQwNiBMNzMyLDQwNi42NDA2IEw3MzIsMzkwLjcyNjYiIGZpbGw9IiNFRUVFRUUiIHN0eWxlPSJzdHJva2U6IzAwMDAwMDtzdHJva2Utd2lkdGg6MS41OyIvPjxyZWN0IGZpbGw9Im5vbmUiIGhlaWdodD0iMTcxLjI1NzgiIHN0eWxlPSJzdHJva2U6IzAwMDAwMDtzdHJva2Utd2lkdGg6MS41OyIgd2lkdGg9IjUyOS41IiB4PSI3MzIiIHk9IjM5MC43MjY2Ii8+PHRleHQgZmlsbD0iIzAwMDAwMCIgZm9udC1mYW1pbHk9InNhbnMtc2VyaWYiIGZvbnQtc2l6ZT0iMTMiIGZvbnQtd2VpZ2h0PSJib2xkIiBsZW5ndGhBZGp1c3Q9InNwYWNpbmciIHRleHRMZW5ndGg9IjUyIiB4PSI3NDciIHk9IjQwNC4wMTU2Ij5jcml0aWNhbDwvdGV4dD48dGV4dCBmaWxsPSIjMDAwMDAwIiBmb250LWZhbWlseT0ic2Fucy1zZXJpZiIgZm9udC1zaXplPSIxMSIgZm9udC13ZWlnaHQ9ImJvbGQiIGxlbmd0aEFkanVzdD0ic3BhY2luZyIgdGV4dExlbmd0aD0iOTkiIHg9Ijg0NCIgeT0iNDAzLjEyNSI+WyYjMTI0ODg7JiMxMjUyMTsmIzEyNTMxOyYjMTI0NzA7JiMxMjQ2MzsmIzEyNDcxOyYjMTI1MTk7JiMxMjUzMTtdPC90ZXh0PjxnIGNsYXNzPSJtZXNzYWdlIiBkYXRhLXBhcnRpY2lwYW50LTE9IlNlcnZpY2UiIGRhdGEtcGFydGljaXBhbnQtMj0iUmVwb3NpdG9yeSI+PHBvbHlnb24gZmlsbD0iIzE4MTgxOCIgcG9pbnRzPSI5NjAuNSw0MjIuNTU0Nyw5NzAuNSw0MjYuNTU0Nyw5NjAuNSw0MzAuNTU0Nyw5NjQuNSw0MjYuNTU0NyIgc3R5bGU9InN0cm9rZTojMTgxODE4O3N0cm9rZS13aWR0aDoxOyIvPjxsaW5lIHN0eWxlPSJzdHJva2U6IzE4MTgxODtzdHJva2Utd2lkdGg6MTsiIHgxPSI4MTguNSIgeDI9Ijk2Ni41IiB5MT0iNDI2LjU1NDciIHkyPSI0MjYuNTU0NyIvPjx0ZXh0IGZpbGw9IiMwMDAwMDAiIGZvbnQtZmFtaWx5PSJzYW5zLXNlcmlmIiBmb250LXNpemU9IjEzIiBsZW5ndGhBZGp1c3Q9InNwYWNpbmciIHRleHRMZW5ndGg9IjEzMCIgeD0iODI1LjUiIHk9IjQyMi45Mjk3Ij5zYXZlQ2VudGVySW5mbyhmb3JtKTwvdGV4dD48L2c+PGcgY2xhc3M9Im1lc3NhZ2UiIGRhdGEtcGFydGljaXBhbnQtMT0iUmVwb3NpdG9yeSIgZGF0YS1wYXJ0aWNpcGFudC0yPSJEQiI+PHBvbHlnb24gZmlsbD0iIzE4MTgxOCIgcG9pbnRzPSIxMTM4LjUsNDUwLjQ2ODgsMTE0OC41LDQ1NC40Njg4LDExMzguNSw0NTguNDY4OCwxMTQyLjUsNDU0LjQ2ODgiIHN0eWxlPSJzdHJva2U6IzE4MTgxODtzdHJva2Utd2lkdGg6MTsiLz48bGluZSBzdHlsZT0ic3Ryb2tlOiMxODE4MTg7c3Ryb2tlLXdpZHRoOjE7IiB4MT0iOTcyLjUiIHgyPSIxMTQ0LjUiIHkxPSI0NTQuNDY4OCIgeTI9IjQ1NC40Njg4Ii8+PHRleHQgZmlsbD0iIzAwMDAwMCIgZm9udC1mYW1pbHk9InNhbnMtc2VyaWYiIGZvbnQtc2l6ZT0iMTMiIGxlbmd0aEFkanVzdD0ic3BhY2luZyIgdGV4dExlbmd0aD0iMTQ5LjUiIHg9Ijk3OS41IiB5PSI0NTAuODQzOCI+SU5TRVJUIElOVE8gY2VudGVyX2luZm88L3RleHQ+PC9nPjxwYXRoIGQ9Ik03NDIsNDY5LjQ2ODggTDgwNi41LDQ2OS40Njg4IEw4MDYuNSw0NzUuMzgyOCBMNzk2LjUsNDg1LjM4MjggTDc0Miw0ODUuMzgyOCBMNzQyLDQ2OS40Njg4IiBmaWxsPSIjRUVFRUVFIiBzdHlsZT0ic3Ryb2tlOiMwMDAwMDA7c3Ryb2tlLXdpZHRoOjEuNTsiLz48cmVjdCBmaWxsPSJub25lIiBoZWlnaHQ9Ijg1LjUxNTYiIHN0eWxlPSJzdHJva2U6IzAwMDAwMDtzdHJva2Utd2lkdGg6MS41OyIgd2lkdGg9IjUwOS41IiB4PSI3NDIiIHk9IjQ2OS40Njg4Ii8+PHRleHQgZmlsbD0iIzAwMDAwMCIgZm9udC1mYW1pbHk9InNhbnMtc2VyaWYiIGZvbnQtc2l6ZT0iMTMiIGZvbnQtd2VpZ2h0PSJib2xkIiBsZW5ndGhBZGp1c3Q9InNwYWNpbmciIHRleHRMZW5ndGg9IjE5LjUiIHg9Ijc1NyIgeT0iNDgyLjc1NzgiPmFsdDwvdGV4dD48dGV4dCBmaWxsPSIjMDAwMDAwIiBmb250LWZhbWlseT0ic2Fucy1zZXJpZiIgZm9udC1zaXplPSIxMSIgZm9udC13ZWlnaHQ9ImJvbGQiIGxlbmd0aEFkanVzdD0ic3BhY2luZyIgdGV4dExlbmd0aD0iMTIxIiB4PSI4MjEuNSIgeT0iNDgxLjg2NzIiPlsmIzMwMzMxOyYjMzc2ODI7JiMyMDAxMzsmIzEyMzk1O0RCJiMxMjQ1NjsmIzEyNTIxOyYjMTI1NDA7JiMzMDMzMDsmIzI5OTgzO108L3RleHQ+PGcgY2xhc3M9Im1lc3NhZ2UiIGRhdGEtcGFydGljaXBhbnQtMT0iU2VydmljZSIgZGF0YS1wYXJ0aWNpcGFudC0yPSJEQiI+PHBvbHlnb24gZmlsbD0iIzE4MTgxOCIgcG9pbnRzPSIxMTM4LjUsNTAxLjI5NjksMTE0OC41LDUwNS4yOTY5LDExMzguNSw1MDkuMjk2OSwxMTQyLjUsNTA1LjI5NjkiIHN0eWxlPSJzdHJva2U6IzE4MTgxODtzdHJva2Utd2lkdGg6MTsiLz48bGluZSBzdHlsZT0ic3Ryb2tlOiMxODE4MTg7c3Ryb2tlLXdpZHRoOjE7IiB4MT0iODE4LjUiIHgyPSIxMTQ0LjUiIHkxPSI1MDUuMjk2OSIgeTI9IjUwNS4yOTY5Ii8+PHRleHQgZmlsbD0iIzAwMDAwMCIgZm9udC1mYW1pbHk9InNhbnMtc2VyaWYiIGZvbnQtc2l6ZT0iMTMiIGxlbmd0aEFkanVzdD0ic3BhY2luZyIgdGV4dExlbmd0aD0iMTE3IiB4PSI4MjUuNSIgeT0iNTAxLjY3MTkiPiYjMTI0ODc7JiMxMjU0MDsmIzEyNDc5OyYjMTI1MjU7JiMxMjU0MDsmIzEyNTIzOyYjMTI0OTY7JiMxMjQ4MzsmIzEyNDYzOzwvdGV4dD48L2c+PGxpbmUgc3R5bGU9InN0cm9rZTojMDAwMDAwO3N0cm9rZS13aWR0aDoxO3N0cm9rZS1kYXNoYXJyYXk6Mi4wLDIuMDsiIHgxPSI3NDIiIHgyPSIxMjUxLjUiIHkxPSI1MTQuMjk2OSIgeTI9IjUxNC4yOTY5Ii8+PHRleHQgZmlsbD0iIzAwMDAwMCIgZm9udC1mYW1pbHk9InNhbnMtc2VyaWYiIGZvbnQtc2l6ZT0iMTEiIGZvbnQtd2VpZ2h0PSJib2xkIiBsZW5ndGhBZGp1c3Q9InNwYWNpbmciIHRleHRMZW5ndGg9IjU1IiB4PSI3NDciIHk9IjUyNC42OTUzIj5bJiMyNzQ5MTsmIzI0MTIwOyYjMjA5NjY7JiMyOTcwMjtdPC90ZXh0PjxnIGNsYXNzPSJtZXNzYWdlIiBkYXRhLXBhcnRpY2lwYW50LTE9IlNlcnZpY2UiIGRhdGEtcGFydGljaXBhbnQtMj0iREIiPjxwb2x5Z29uIGZpbGw9IiMxODE4MTgiIHBvaW50cz0iMTEzOC41LDU0Mi45ODQ0LDExNDguNSw1NDYuOTg0NCwxMTM4LjUsNTUwLjk4NDQsMTE0Mi41LDU0Ni45ODQ0IiBzdHlsZT0ic3Ryb2tlOiMxODE4MTg7c3Ryb2tlLXdpZHRoOjE7Ii8+PGxpbmUgc3R5bGU9InN0cm9rZTojMTgxODE4O3N0cm9rZS13aWR0aDoxOyIgeDE9IjgxOC41IiB4Mj0iMTE0NC41IiB5MT0iNTQ2Ljk4NDQiIHkyPSI1NDYuOTg0NCIvPjx0ZXh0IGZpbGw9IiMwMDAwMDAiIGZvbnQtZmFtaWx5PSJzYW5zLXNlcmlmIiBmb250LXNpemU9IjEzIiBsZW5ndGhBZGp1c3Q9InNwYWNpbmciIHRleHRMZW5ndGg9IjkxIiB4PSI4MjUuNSIgeT0iNTQzLjM1OTQiPiYjMTI0ODc7JiMxMjU0MDsmIzEyNDc5OyYjMTI0Njc7JiMxMjUxMTsmIzEyNDgzOyYjMTI0ODg7PC90ZXh0PjwvZz48cGF0aCBkPSJNMzAsNTc1Ljk4NDQgTDk0LjUsNTc1Ljk4NDQgTDk0LjUsNTgxLjg5ODQgTDg0LjUsNTkxLjg5ODQgTDMwLDU5MS44OTg0IEwzMCw1NzUuOTg0NCIgZmlsbD0iI0VFRUVFRSIgc3R5bGU9InN0cm9rZTojMDAwMDAwO3N0cm9rZS13aWR0aDoxLjU7Ii8+PHJlY3QgZmlsbD0ibm9uZSIgaGVpZ2h0PSIxNjkuMjU3OCIgc3R5bGU9InN0cm9rZTojMDAwMDAwO3N0cm9rZS13aWR0aDoxLjU7IiB3aWR0aD0iODY1IiB4PSIzMCIgeT0iNTc1Ljk4NDQiLz48dGV4dCBmaWxsPSIjMDAwMDAwIiBmb250LWZhbWlseT0ic2Fucy1zZXJpZiIgZm9udC1zaXplPSIxMyIgZm9udC13ZWlnaHQ9ImJvbGQiIGxlbmd0aEFkanVzdD0ic3BhY2luZyIgdGV4dExlbmd0aD0iMTkuNSIgeD0iNDUiIHk9IjU4OS4yNzM0Ij5hbHQ8L3RleHQ+PHRleHQgZmlsbD0iIzAwMDAwMCIgZm9udC1mYW1pbHk9InNhbnMtc2VyaWYiIGZvbnQtc2l6ZT0iMTEiIGZvbnQtd2VpZ2h0PSJib2xkIiBsZW5ndGhBZGp1c3Q9InNwYWNpbmciIHRleHRMZW5ndGg9Ijg4IiB4PSIxMDkuNSIgeT0iNTg4LjM4MjgiPltEQiYjMTI0NTY7JiMxMjUyMTsmIzEyNTQwOyYjMzAzMzA7JiMyOTk4MzsmIzI2MTc4O108L3RleHQ+PGcgY2xhc3M9Im1lc3NhZ2UiIGRhdGEtcGFydGljaXBhbnQtMT0iU2VydmljZSIgZGF0YS1wYXJ0aWNpcGFudC0yPSJDb250cm9sbGVyIj48cG9seWdvbiBmaWxsPSIjMTgxODE4IiBwb2ludHM9IjMzMCw2MDcuODEyNSwzMjAsNjExLjgxMjUsMzMwLDYxNS44MTI1LDMyNiw2MTEuODEyNSIgc3R5bGU9InN0cm9rZTojMTgxODE4O3N0cm9rZS13aWR0aDoxOyIvPjxsaW5lIHN0eWxlPSJzdHJva2U6IzE4MTgxODtzdHJva2Utd2lkdGg6MTtzdHJva2UtZGFzaGFycmF5OjIuMCwyLjA7IiB4MT0iMzI0IiB4Mj0iODE3LjUiIHkxPSI2MTEuODEyNSIgeTI9IjYxMS44MTI1Ii8+PHRleHQgZmlsbD0iIzAwMDAwMCIgZm9udC1mYW1pbHk9InNhbnMtc2VyaWYiIGZvbnQtc2l6ZT0iMTMiIGxlbmd0aEFkanVzdD0ic3BhY2luZyIgdGV4dExlbmd0aD0iMTMwIiB4PSIzMzYiIHk9IjYwOC4xODc1Ij4mIzEyNDU2OyYjMTI1MjE7JiMxMjU0MDsmIzEyNTEzOyYjMTI0ODM7JiMxMjQ3NTsmIzEyNTQwOyYjMTI0NzI7JiMzNjg2NTsmIzIwNDQ5OzwvdGV4dD48L2c+PGcgY2xhc3M9Im1lc3NhZ2UiIGRhdGEtcGFydGljaXBhbnQtMT0iQ29udHJvbGxlciIgZGF0YS1wYXJ0aWNpcGFudC0yPSJVc2VyIj48cG9seWdvbiBmaWxsPSIjMTgxODE4IiBwb2ludHM9IjcyLDYzNS43MjY2LDYyLDYzOS43MjY2LDcyLDY0My43MjY2LDY4LDYzOS43MjY2IiBzdHlsZT0ic3Ryb2tlOiMxODE4MTg7c3Ryb2tlLXdpZHRoOjE7Ii8+PGxpbmUgc3R5bGU9InN0cm9rZTojMTgxODE4O3N0cm9rZS13aWR0aDoxO3N0cm9rZS1kYXNoYXJyYXk6Mi4wLDIuMDsiIHgxPSI2NiIgeDI9IjMxOCIgeTE9IjYzOS43MjY2IiB5Mj0iNjM5LjcyNjYiLz48dGV4dCBmaWxsPSIjMDAwMDAwIiBmb250LWZhbWlseT0ic2Fucy1zZXJpZiIgZm9udC1zaXplPSIxMyIgbGVuZ3RoQWRqdXN0PSJzcGFjaW5nIiB0ZXh0TGVuZ3RoPSIxMzAiIHg9Ijc4IiB5PSI2MzYuMTAxNiI+JiMxMjQ1NjsmIzEyNTIxOyYjMTI1NDA7JiMxMjUxMzsmIzEyNDgzOyYjMTI0NzU7JiMxMjU0MDsmIzEyNDcyOyYjMzQ5MjA7JiMzMTAzNDs8L3RleHQ+PC9nPjxnIGNsYXNzPSJtZXNzYWdlIiBkYXRhLXBhcnRpY2lwYW50LTE9IkNvbnRyb2xsZXIiIGRhdGEtcGFydGljaXBhbnQtMj0iVXNlciI+PHBvbHlnb24gZmlsbD0iIzE4MTgxOCIgcG9pbnRzPSI3Miw2NjMuNjQwNiw2Miw2NjcuNjQwNiw3Miw2NzEuNjQwNiw2OCw2NjcuNjQwNiIgc3R5bGU9InN0cm9rZTojMTgxODE4O3N0cm9rZS13aWR0aDoxOyIvPjxsaW5lIHN0eWxlPSJzdHJva2U6IzE4MTgxODtzdHJva2Utd2lkdGg6MTtzdHJva2UtZGFzaGFycmF5OjIuMCwyLjA7IiB4MT0iNjYiIHgyPSIzMTgiIHkxPSI2NjcuNjQwNiIgeTI9IjY2Ny42NDA2Ii8+PHRleHQgZmlsbD0iIzAwMDAwMCIgZm9udC1mYW1pbHk9InNhbnMtc2VyaWYiIGZvbnQtc2l6ZT0iMTMiIGxlbmd0aEFkanVzdD0ic3BhY2luZyIgdGV4dExlbmd0aD0iMjM0IiB4PSI3OCIgeT0iNjY0LjAxNTYiPnJlZGlyZWN0OiAvYWRtaW4vY2VudGVySW5mby9yZWdpc3RlcjwvdGV4dD48L2c+PGxpbmUgc3R5bGU9InN0cm9rZTojMDAwMDAwO3N0cm9rZS13aWR0aDoxO3N0cm9rZS1kYXNoYXJyYXk6Mi4wLDIuMDsiIHgxPSIzMCIgeDI9Ijg5NSIgeTE9IjY3Ni42NDA2IiB5Mj0iNjc2LjY0MDYiLz48dGV4dCBmaWxsPSIjMDAwMDAwIiBmb250LWZhbWlseT0ic2Fucy1zZXJpZiIgZm9udC1zaXplPSIxMSIgZm9udC13ZWlnaHQ9ImJvbGQiIGxlbmd0aEFkanVzdD0ic3BhY2luZyIgdGV4dExlbmd0aD0iNTUiIHg9IjM1IiB5PSI2ODcuMDM5MSI+WyYjMzAzMzE7JiMzNzY4MjsmIzI1MTA0OyYjMjExNTE7XTwvdGV4dD48ZyBjbGFzcz0ibWVzc2FnZSIgZGF0YS1wYXJ0aWNpcGFudC0xPSJDb250cm9sbGVyIiBkYXRhLXBhcnRpY2lwYW50LTI9IlVzZXIiPjxwb2x5Z29uIGZpbGw9IiMxODE4MTgiIHBvaW50cz0iNzIsNzA1LjMyODEsNjIsNzA5LjMyODEsNzIsNzEzLjMyODEsNjgsNzA5LjMyODEiIHN0eWxlPSJzdHJva2U6IzE4MTgxODtzdHJva2Utd2lkdGg6MTsiLz48bGluZSBzdHlsZT0ic3Ryb2tlOiMxODE4MTg7c3Ryb2tlLXdpZHRoOjE7c3Ryb2tlLWRhc2hhcnJheToyLjAsMi4wOyIgeDE9IjY2IiB4Mj0iMzE4IiB5MT0iNzA5LjMyODEiIHkyPSI3MDkuMzI4MSIvPjx0ZXh0IGZpbGw9IiMwMDAwMDAiIGZvbnQtZmFtaWx5PSJzYW5zLXNlcmlmIiBmb250LXNpemU9IjEzIiBsZW5ndGhBZGp1c3Q9InNwYWNpbmciIHRleHRMZW5ndGg9IjEyMy41IiB4PSI3OCIgeT0iNzA1LjcwMzEiPmFkZEZsYXNoQXR0cmlidXRlKCk8L3RleHQ+PC9nPjxnIGNsYXNzPSJtZXNzYWdlIiBkYXRhLXBhcnRpY2lwYW50LTE9IkNvbnRyb2xsZXIiIGRhdGEtcGFydGljaXBhbnQtMj0iVXNlciI+PHBvbHlnb24gZmlsbD0iIzE4MTgxOCIgcG9pbnRzPSI3Miw3MzMuMjQyMiw2Miw3MzcuMjQyMiw3Miw3NDEuMjQyMiw2OCw3MzcuMjQyMiIgc3R5bGU9InN0cm9rZTojMTgxODE4O3N0cm9rZS13aWR0aDoxOyIvPjxsaW5lIHN0eWxlPSJzdHJva2U6IzE4MTgxODtzdHJva2Utd2lkdGg6MTtzdHJva2UtZGFzaGFycmF5OjIuMCwyLjA7IiB4MT0iNjYiIHgyPSIzMTgiIHkxPSI3MzcuMjQyMiIgeTI9IjczNy4yNDIyIi8+PHRleHQgZmlsbD0iIzAwMDAwMCIgZm9udC1mYW1pbHk9InNhbnMtc2VyaWYiIGZvbnQtc2l6ZT0iMTMiIGxlbmd0aEFkanVzdD0ic3BhY2luZyIgdGV4dExlbmd0aD0iMjE0LjUiIHg9Ijc4IiB5PSI3MzMuNjE3MiI+cmVkaXJlY3Q6IC9hZG1pbi9jZW50ZXJJbmZvL2luZGV4PC90ZXh0PjwvZz48bGluZSBzdHlsZT0ic3Ryb2tlOiMwMDAwMDA7c3Ryb2tlLXdpZHRoOjE7c3Ryb2tlLWRhc2hhcnJheToyLjAsMi4wOyIgeDE9IjEwIiB4Mj0iMTQ4Ny41IiB5MT0iNzYwLjI0MjIiIHkyPSI3NjAuMjQyMiIvPjx0ZXh0IGZpbGw9IiMwMDAwMDAiIGZvbnQtZmFtaWx5PSJzYW5zLXNlcmlmIiBmb250LXNpemU9IjExIiBmb250LXdlaWdodD0iYm9sZCIgbGVuZ3RoQWRqdXN0PSJzcGFjaW5nIiB0ZXh0TGVuZ3RoPSIxMTAiIHg9IjE1IiB5PSI3NzAuNjQwNiI+WyYjMzg3NTA7JiMyMTUxNjsmIzI2Mzk5OyYjMjA5NjY7JiMyOTcwMjsmIzY1Mjg4O0FqYXgmIzY1Mjg5O108L3RleHQ+PGcgY2xhc3M9Im1lc3NhZ2UiIGRhdGEtcGFydGljaXBhbnQtMT0iVXNlciIgZGF0YS1wYXJ0aWNpcGFudC0yPSJGcm9udGVuZCI+PHBvbHlnb24gZmlsbD0iIzE4MTgxOCIgcG9pbnRzPSIxMjc0LjUsNzg4LjkyOTcsMTI4NC41LDc5Mi45Mjk3LDEyNzQuNSw3OTYuOTI5NywxMjc4LjUsNzkyLjkyOTciIHN0eWxlPSJzdHJva2U6IzE4MTgxODtzdHJva2Utd2lkdGg6MTsiLz48bGluZSBzdHlsZT0ic3Ryb2tlOiMxODE4MTg7c3Ryb2tlLXdpZHRoOjE7IiB4MT0iNjEiIHgyPSIxMjgwLjUiIHkxPSI3OTIuOTI5NyIgeTI9Ijc5Mi45Mjk3Ii8+PHRleHQgZmlsbD0iIzAwMDAwMCIgZm9udC1mYW1pbHk9InNhbnMtc2VyaWYiIGZvbnQtc2l6ZT0iMTMiIGxlbmd0aEFkanVzdD0ic3BhY2luZyIgdGV4dExlbmd0aD0iMTE3IiB4PSI2OCIgeT0iNzg5LjMwNDciPiYjMjA4Mzc7JiMyMTE0NzsmIzEyNTAxOyYjMTI0NTc7JiMxMjU0MDsmIzEyNTEyOyYjMTIzOTU7JiMyMDgzNzsmIzIxMTQ3OzwvdGV4dD48L2c+PGcgY2xhc3M9Im1lc3NhZ2UiIGRhdGEtcGFydGljaXBhbnQtMT0iRnJvbnRlbmQiIGRhdGEtcGFydGljaXBhbnQtMj0iRnJvbnRlbmQiPjxsaW5lIHN0eWxlPSJzdHJva2U6IzE4MTgxODtzdHJva2Utd2lkdGg6MTsiIHgxPSIxMjg2LjUiIHgyPSIxMzI4LjUiIHkxPSI4MjAuODQzOCIgeTI9IjgyMC44NDM4Ii8+PGxpbmUgc3R5bGU9InN0cm9rZTojMTgxODE4O3N0cm9rZS13aWR0aDoxOyIgeDE9IjEzMjguNSIgeDI9IjEzMjguNSIgeTE9IjgyMC44NDM4IiB5Mj0iODMzLjg0MzgiLz48bGluZSBzdHlsZT0ic3Ryb2tlOiMxODE4MTg7c3Ryb2tlLXdpZHRoOjE7IiB4MT0iMTI4Ny41IiB4Mj0iMTMyOC41IiB5MT0iODMzLjg0MzgiIHkyPSI4MzMuODQzOCIvPjxwb2x5Z29uIGZpbGw9IiMxODE4MTgiIHBvaW50cz0iMTI5Ny41LDgyOS44NDM4LDEyODcuNSw4MzMuODQzOCwxMjk3LjUsODM3Ljg0MzgsMTI5My41LDgzMy44NDM4IiBzdHlsZT0ic3Ryb2tlOiMxODE4MTg7c3Ryb2tlLXdpZHRoOjE7Ii8+PHRleHQgZmlsbD0iIzAwMDAwMCIgZm9udC1mYW1pbHk9InNhbnMtc2VyaWYiIGZvbnQtc2l6ZT0iMTMiIGxlbmd0aEFkanVzdD0ic3BhY2luZyIgdGV4dExlbmd0aD0iMTgyIiB4PSIxMjkzLjUiIHk9IjgxNy4yMTg4Ij4mIzIwODM3OyYjMjExNDc7JiMxMjQ4MTsmIzEyNDU1OyYjMTI0ODM7JiMxMjQ2MzsmIzY1Mjg4OyYjMTI1MjI7JiMxMjQ1MDsmIzEyNTIzOyYjMTI0Nzk7JiMxMjQ1MjsmIzEyNTEyOyYjNjUyODk7PC90ZXh0PjwvZz48cGF0aCBkPSJNMjAsODQ4Ljg0MzggTDg0LjUsODQ4Ljg0MzggTDg0LjUsODU0Ljc1NzggTDc0LjUsODY0Ljc1NzggTDIwLDg2NC43NTc4IEwyMCw4NDguODQzOCIgZmlsbD0iI0VFRUVFRSIgc3R5bGU9InN0cm9rZTojMDAwMDAwO3N0cm9rZS13aWR0aDoxLjU7Ii8+PHJlY3QgZmlsbD0ibm9uZSIgaGVpZ2h0PSI2MDQuNjAxNiIgc3R5bGU9InN0cm9rZTojMDAwMDAwO3N0cm9rZS13aWR0aDoxLjU7IiB3aWR0aD0iMTM3My41IiB4PSIyMCIgeT0iODQ4Ljg0MzgiLz48dGV4dCBmaWxsPSIjMDAwMDAwIiBmb250LWZhbWlseT0ic2Fucy1zZXJpZiIgZm9udC1zaXplPSIxMyIgZm9udC13ZWlnaHQ9ImJvbGQiIGxlbmd0aEFkanVzdD0ic3BhY2luZyIgdGV4dExlbmd0aD0iMTkuNSIgeD0iMzUiIHk9Ijg2Mi4xMzI4Ij5hbHQ8L3RleHQ+PHRleHQgZmlsbD0iIzAwMDAwMCIgZm9udC1mYW1pbHk9InNhbnMtc2VyaWYiIGZvbnQtc2l6ZT0iMTEiIGZvbnQtd2VpZ2h0PSJib2xkIiBsZW5ndGhBZGp1c3Q9InNwYWNpbmciIHRleHRMZW5ndGg9IjU1IiB4PSI5OS41IiB5PSI4NjEuMjQyMiI+WyYjMjA4Mzc7JiMyMTE0NzsmIzE5OTgxOyYjMjc0OTE7XTwvdGV4dD48ZyBjbGFzcz0ibWVzc2FnZSIgZGF0YS1wYXJ0aWNpcGFudC0xPSJGcm9udGVuZCIgZGF0YS1wYXJ0aWNpcGFudC0yPSJVc2VyIj48cG9seWdvbiBmaWxsPSIjMTgxODE4IiBwb2ludHM9IjcyLDg4MC42NzE5LDYyLDg4NC42NzE5LDcyLDg4OC42NzE5LDY4LDg4NC42NzE5IiBzdHlsZT0ic3Ryb2tlOiMxODE4MTg7c3Ryb2tlLXdpZHRoOjE7Ii8+PGxpbmUgc3R5bGU9InN0cm9rZTojMTgxODE4O3N0cm9rZS13aWR0aDoxO3N0cm9rZS1kYXNoYXJyYXk6Mi4wLDIuMDsiIHgxPSI2NiIgeDI9IjEyODUuNSIgeTE9Ijg4NC42NzE5IiB5Mj0iODg0LjY3MTkiLz48dGV4dCBmaWxsPSIjMDAwMDAwIiBmb250LWZhbWlseT0ic2Fucy1zZXJpZiIgZm9udC1zaXplPSIxMyIgbGVuZ3RoQWRqdXN0PSJzcGFjaW5nIiB0ZXh0TGVuZ3RoPSI5MSIgeD0iNzgiIHk9Ijg4MS4wNDY5Ij4mIzIwODM3OyYjMjExNDc7JiMxMjQ1NjsmIzEyNTIxOyYjMTI1NDA7JiMzNDkyMDsmIzMxMDM0OzwvdGV4dD48L2c+PGxpbmUgc3R5bGU9InN0cm9rZTojMDAwMDAwO3N0cm9rZS13aWR0aDoxO3N0cm9rZS1kYXNoYXJyYXk6Mi4wLDIuMDsiIHgxPSIyMCIgeDI9IjEzOTMuNSIgeTE9Ijg5My42NzE5IiB5Mj0iODkzLjY3MTkiLz48dGV4dCBmaWxsPSIjMDAwMDAwIiBmb250LWZhbWlseT0ic2Fucy1zZXJpZiIgZm9udC1zaXplPSIxMSIgZm9udC13ZWlnaHQ9ImJvbGQiIGxlbmd0aEFkanVzdD0ic3BhY2luZyIgdGV4dExlbmd0aD0iNTUiIHg9IjI1IiB5PSI5MDQuMDcwMyI+WyYjMjA4Mzc7JiMyMTE0NzsmIzI3NDkxOyYjMjQxMjA7XTwvdGV4dD48ZyBjbGFzcz0ibWVzc2FnZSIgZGF0YS1wYXJ0aWNpcGFudC0xPSJVc2VyIiBkYXRhLXBhcnRpY2lwYW50LTI9IkZyb250ZW5kIj48cG9seWdvbiBmaWxsPSIjMTgxODE4IiBwb2ludHM9IjEyNzQuNSw5MjIuMzU5NCwxMjg0LjUsOTI2LjM1OTQsMTI3NC41LDkzMC4zNTk0LDEyNzguNSw5MjYuMzU5NCIgc3R5bGU9InN0cm9rZTojMTgxODE4O3N0cm9rZS13aWR0aDoxOyIvPjxsaW5lIHN0eWxlPSJzdHJva2U6IzE4MTgxODtzdHJva2Utd2lkdGg6MTsiIHgxPSI2MSIgeDI9IjEyODAuNSIgeTE9IjkyNi4zNTk0IiB5Mj0iOTI2LjM1OTQiLz48dGV4dCBmaWxsPSIjMDAwMDAwIiBmb250LWZhbWlseT0ic2Fucy1zZXJpZiIgZm9udC1zaXplPSIxMyIgbGVuZ3RoQWRqdXN0PSJzcGFjaW5nIiB0ZXh0TGVuZ3RoPSI5MSIgeD0iNjgiIHk9IjkyMi43MzQ0Ij4mIzMwMzMxOyYjMzc2ODI7JiMxMjUwODsmIzEyNDc5OyYjMTI1MzE7JiMyNTI3NjsmIzE5OTc5OzwvdGV4dD48L2c+PGcgY2xhc3M9Im1lc3NhZ2UiIGRhdGEtcGFydGljaXBhbnQtMT0iRnJvbnRlbmQiIGRhdGEtcGFydGljaXBhbnQtMj0iQ29udHJvbGxlciI+PHBvbHlnb24gZmlsbD0iIzE4MTgxOCIgcG9pbnRzPSIzMzAsOTUwLjI3MzQsMzIwLDk1NC4yNzM0LDMzMCw5NTguMjczNCwzMjYsOTU0LjI3MzQiIHN0eWxlPSJzdHJva2U6IzE4MTgxODtzdHJva2Utd2lkdGg6MTsiLz48bGluZSBzdHlsZT0ic3Ryb2tlOiMxODE4MTg7c3Ryb2tlLXdpZHRoOjE7IiB4MT0iMzI0IiB4Mj0iMTI4NS41IiB5MT0iOTU0LjI3MzQiIHkyPSI5NTQuMjczNCIvPjx0ZXh0IGZpbGw9IiMwMDAwMDAiIGZvbnQtZmFtaWx5PSJzYW5zLXNlcmlmIiBmb250LXNpemU9IjEzIiBsZW5ndGhBZGp1c3Q9InNwYWNpbmciIHRleHRMZW5ndGg9IjIyMSIgeD0iMzM2IiB5PSI5NTAuNjQ4NCI+QWpheCBQT1NUIC9hZG1pbi9jZW50ZXJJbmZvL2luc2VydDwvdGV4dD48L2c+PGcgY2xhc3M9Im1lc3NhZ2UiIGRhdGEtcGFydGljaXBhbnQtMT0iQ29udHJvbGxlciIgZGF0YS1wYXJ0aWNpcGFudC0yPSJTZXJ2aWNlIj48cG9seWdvbiBmaWxsPSIjMTgxODE4IiBwb2ludHM9IjgwNi41LDk3OC4xODc1LDgxNi41LDk4Mi4xODc1LDgwNi41LDk4Ni4xODc1LDgxMC41LDk4Mi4xODc1IiBzdHlsZT0ic3Ryb2tlOiMxODE4MTg7c3Ryb2tlLXdpZHRoOjE7Ii8+PGxpbmUgc3R5bGU9InN0cm9rZTojMTgxODE4O3N0cm9rZS13aWR0aDoxOyIgeDE9IjMxOSIgeDI9IjgxMi41IiB5MT0iOTgyLjE4NzUiIHkyPSI5ODIuMTg3NSIvPjx0ZXh0IGZpbGw9IiMwMDAwMDAiIGZvbnQtZmFtaWx5PSJzYW5zLXNlcmlmIiBmb250LXNpemU9IjEzIiBsZW5ndGhBZGp1c3Q9InNwYWNpbmciIHRleHRMZW5ndGg9IjE1NiIgeD0iMzI2IiB5PSI5NzguNTYyNSI+c2F2ZUNlbnRlckluZm9EYXRhKGZvcm0pPC90ZXh0PjwvZz48ZyBjbGFzcz0ibWVzc2FnZSIgZGF0YS1wYXJ0aWNpcGFudC0xPSJTZXJ2aWNlIiBkYXRhLXBhcnRpY2lwYW50LTI9IlJlcG9zaXRvcnkiPjxwb2x5Z29uIGZpbGw9IiMxODE4MTgiIHBvaW50cz0iOTYwLjUsMTAwNi4xMDE2LDk3MC41LDEwMTAuMTAxNiw5NjAuNSwxMDE0LjEwMTYsOTY0LjUsMTAxMC4xMDE2IiBzdHlsZT0ic3Ryb2tlOiMxODE4MTg7c3Ryb2tlLXdpZHRoOjE7Ii8+PGxpbmUgc3R5bGU9InN0cm9rZTojMTgxODE4O3N0cm9rZS13aWR0aDoxOyIgeDE9IjgxOC41IiB4Mj0iOTY2LjUiIHkxPSIxMDEwLjEwMTYiIHkyPSIxMDEwLjEwMTYiLz48dGV4dCBmaWxsPSIjMDAwMDAwIiBmb250LWZhbWlseT0ic2Fucy1zZXJpZiIgZm9udC1zaXplPSIxMyIgbGVuZ3RoQWRqdXN0PSJzcGFjaW5nIiB0ZXh0TGVuZ3RoPSIxMzAiIHg9IjgyNS41IiB5PSIxMDA2LjQ3NjYiPnNhdmVDZW50ZXJJbmZvKGZvcm0pPC90ZXh0PjwvZz48ZyBjbGFzcz0ibWVzc2FnZSIgZGF0YS1wYXJ0aWNpcGFudC0xPSJSZXBvc2l0b3J5IiBkYXRhLXBhcnRpY2lwYW50LTI9IkRCIj48cG9seWdvbiBmaWxsPSIjMTgxODE4IiBwb2ludHM9IjExMzguNSwxMDM0LjAxNTYsMTE0OC41LDEwMzguMDE1NiwxMTM4LjUsMTA0Mi4wMTU2LDExNDIuNSwxMDM4LjAxNTYiIHN0eWxlPSJzdHJva2U6IzE4MTgxODtzdHJva2Utd2lkdGg6MTsiLz48bGluZSBzdHlsZT0ic3Ryb2tlOiMxODE4MTg7c3Ryb2tlLXdpZHRoOjE7IiB4MT0iOTcyLjUiIHgyPSIxMTQ0LjUiIHkxPSIxMDM4LjAxNTYiIHkyPSIxMDM4LjAxNTYiLz48dGV4dCBmaWxsPSIjMDAwMDAwIiBmb250LWZhbWlseT0ic2Fucy1zZXJpZiIgZm9udC1zaXplPSIxMyIgbGVuZ3RoQWRqdXN0PSJzcGFjaW5nIiB0ZXh0TGVuZ3RoPSIxNDkuNSIgeD0iOTc5LjUiIHk9IjEwMzQuMzkwNiI+SU5TRVJUIElOVE8gY2VudGVyX2luZm88L3RleHQ+PC9nPjxnIGNsYXNzPSJtZXNzYWdlIiBkYXRhLXBhcnRpY2lwYW50LTE9IkRCIiBkYXRhLXBhcnRpY2lwYW50LTI9IlJlcG9zaXRvcnkiPjxwb2x5Z29uIGZpbGw9IiMxODE4MTgiIHBvaW50cz0iOTgzLjUsMTA2MS45Mjk3LDk3My41LDEwNjUuOTI5Nyw5ODMuNSwxMDY5LjkyOTcsOTc5LjUsMTA2NS45Mjk3IiBzdHlsZT0ic3Ryb2tlOiMxODE4MTg7c3Ryb2tlLXdpZHRoOjE7Ii8+PGxpbmUgc3R5bGU9InN0cm9rZTojMTgxODE4O3N0cm9rZS13aWR0aDoxO3N0cm9rZS1kYXNoYXJyYXk6Mi4wLDIuMDsiIHgxPSI5NzcuNSIgeDI9IjExNDkuNSIgeTE9IjEwNjUuOTI5NyIgeTI9IjEwNjUuOTI5NyIvPjx0ZXh0IGZpbGw9IiMwMDAwMDAiIGZvbnQtZmFtaWx5PSJzYW5zLXNlcmlmIiBmb250LXNpemU9IjEzIiBsZW5ndGhBZGp1c3Q9InNwYWNpbmciIHRleHRMZW5ndGg9IjI2IiB4PSI5ODkuNSIgeT0iMTA2Mi4zMDQ3Ij4mIzI1MTA0OyYjMjExNTE7PC90ZXh0PjwvZz48ZyBjbGFzcz0ibWVzc2FnZSIgZGF0YS1wYXJ0aWNpcGFudC0xPSJSZXBvc2l0b3J5IiBkYXRhLXBhcnRpY2lwYW50LTI9IlNlcnZpY2UiPjxwb2x5Z29uIGZpbGw9IiMxODE4MTgiIHBvaW50cz0iODI5LjUsMTA4OS44NDM4LDgxOS41LDEwOTMuODQzOCw4MjkuNSwxMDk3Ljg0MzgsODI1LjUsMTA5My44NDM4IiBzdHlsZT0ic3Ryb2tlOiMxODE4MTg7c3Ryb2tlLXdpZHRoOjE7Ii8+PGxpbmUgc3R5bGU9InN0cm9rZTojMTgxODE4O3N0cm9rZS13aWR0aDoxO3N0cm9rZS1kYXNoYXJyYXk6Mi4wLDIuMDsiIHgxPSI4MjMuNSIgeDI9Ijk3MS41IiB5MT0iMTA5My44NDM4IiB5Mj0iMTA5My44NDM4Ii8+PHRleHQgZmlsbD0iIzAwMDAwMCIgZm9udC1mYW1pbHk9InNhbnMtc2VyaWYiIGZvbnQtc2l6ZT0iMTMiIGxlbmd0aEFkanVzdD0ic3BhY2luZyIgdGV4dExlbmd0aD0iMjYiIHg9IjgzNS41IiB5PSIxMDkwLjIxODgiPiYjMjUxMDQ7JiMyMTE1MTs8L3RleHQ+PC9nPjxnIGNsYXNzPSJtZXNzYWdlIiBkYXRhLXBhcnRpY2lwYW50LTE9IlNlcnZpY2UiIGRhdGEtcGFydGljaXBhbnQtMj0iQ29udHJvbGxlciI+PHBvbHlnb24gZmlsbD0iIzE4MTgxOCIgcG9pbnRzPSIzMzAsMTExNy43NTc4LDMyMCwxMTIxLjc1NzgsMzMwLDExMjUuNzU3OCwzMjYsMTEyMS43NTc4IiBzdHlsZT0ic3Ryb2tlOiMxODE4MTg7c3Ryb2tlLXdpZHRoOjE7Ii8+PGxpbmUgc3R5bGU9InN0cm9rZTojMTgxODE4O3N0cm9rZS13aWR0aDoxO3N0cm9rZS1kYXNoYXJyYXk6Mi4wLDIuMDsiIHgxPSIzMjQiIHgyPSI4MTcuNSIgeTE9IjExMjEuNzU3OCIgeTI9IjExMjEuNzU3OCIvPjx0ZXh0IGZpbGw9IiMwMDAwMDAiIGZvbnQtZmFtaWx5PSJzYW5zLXNlcmlmIiBmb250LXNpemU9IjEzIiBsZW5ndGhBZGp1c3Q9InNwYWNpbmciIHRleHRMZW5ndGg9IjI2IiB4PSIzMzYiIHk9IjExMTguMTMyOCI+JiMyNTEwNDsmIzIxMTUxOzwvdGV4dD48L2c+PHBhdGggZD0iTTMwLDExMzYuNzU3OCBMOTQuNSwxMTM2Ljc1NzggTDk0LjUsMTE0Mi42NzE5IEw4NC41LDExNTIuNjcxOSBMMzAsMTE1Mi42NzE5IEwzMCwxMTM2Ljc1NzgiIGZpbGw9IiNFRUVFRUUiIHN0eWxlPSJzdHJva2U6IzAwMDAwMDtzdHJva2Utd2lkdGg6MS41OyIvPjxyZWN0IGZpbGw9Im5vbmUiIGhlaWdodD0iMjEwLjk0NTMiIHN0eWxlPSJzdHJva2U6IzAwMDAwMDtzdHJva2Utd2lkdGg6MS41OyIgd2lkdGg9IjEzMDEuNSIgeD0iMzAiIHk9IjExMzYuNzU3OCIvPjx0ZXh0IGZpbGw9IiMwMDAwMDAiIGZvbnQtZmFtaWx5PSJzYW5zLXNlcmlmIiBmb250LXNpemU9IjEzIiBmb250LXdlaWdodD0iYm9sZCIgbGVuZ3RoQWRqdXN0PSJzcGFjaW5nIiB0ZXh0TGVuZ3RoPSIxOS41IiB4PSI0NSIgeT0iMTE1MC4wNDY5Ij5hbHQ8L3RleHQ+PHRleHQgZmlsbD0iIzAwMDAwMCIgZm9udC1mYW1pbHk9InNhbnMtc2VyaWYiIGZvbnQtc2l6ZT0iMTEiIGZvbnQtd2VpZ2h0PSJib2xkIiBsZW5ndGhBZGp1c3Q9InNwYWNpbmciIHRleHRMZW5ndGg9IjcxLjUiIHg9IjEwOS41IiB5PSIxMTQ5LjE1NjMiPltIVFRQIDIwMCBPS108L3RleHQ+PGcgY2xhc3M9Im1lc3NhZ2UiIGRhdGEtcGFydGljaXBhbnQtMT0iQ29udHJvbGxlciIgZGF0YS1wYXJ0aWNpcGFudC0yPSJGcm9udGVuZCI+PHBvbHlnb24gZmlsbD0iIzE4MTgxOCIgcG9pbnRzPSIxMjc0LjUsMTE2OC41ODU5LDEyODQuNSwxMTcyLjU4NTksMTI3NC41LDExNzYuNTg1OSwxMjc4LjUsMTE3Mi41ODU5IiBzdHlsZT0ic3Ryb2tlOiMxODE4MTg7c3Ryb2tlLXdpZHRoOjE7Ii8+PGxpbmUgc3R5bGU9InN0cm9rZTojMTgxODE4O3N0cm9rZS13aWR0aDoxO3N0cm9rZS1kYXNoYXJyYXk6Mi4wLDIuMDsiIHgxPSIzMTkiIHgyPSIxMjgwLjUiIHkxPSIxMTcyLjU4NTkiIHkyPSIxMTcyLjU4NTkiLz48dGV4dCBmaWxsPSIjMDAwMDAwIiBmb250LWZhbWlseT0ic2Fucy1zZXJpZiIgZm9udC1zaXplPSIxMyIgbGVuZ3RoQWRqdXN0PSJzcGFjaW5nIiB0ZXh0TGVuZ3RoPSIxMTciIHg9IjMyNiIgeT0iMTE2OC45NjA5Ij4mIzMwMzMxOyYjMzc2ODI7JiMyMzQzNjsmIzIwMTAyOyYjMTI1MjQ7JiMxMjQ3MzsmIzEyNTA5OyYjMTI1MzE7JiMxMjQ3Mzs8L3RleHQ+PC9nPjxnIGNsYXNzPSJtZXNzYWdlIiBkYXRhLXBhcnRpY2lwYW50LTE9IkZyb250ZW5kIiBkYXRhLXBhcnRpY2lwYW50LTI9IlVzZXIiPjxwb2x5Z29uIGZpbGw9IiMxODE4MTgiIHBvaW50cz0iNzIsMTE5Ni41LDYyLDEyMDAuNSw3MiwxMjA0LjUsNjgsMTIwMC41IiBzdHlsZT0ic3Ryb2tlOiMxODE4MTg7c3Ryb2tlLXdpZHRoOjE7Ii8+PGxpbmUgc3R5bGU9InN0cm9rZTojMTgxODE4O3N0cm9rZS13aWR0aDoxO3N0cm9rZS1kYXNoYXJyYXk6Mi4wLDIuMDsiIHgxPSI2NiIgeDI9IjEyODUuNSIgeTE9IjEyMDAuNSIgeTI9IjEyMDAuNSIvPjx0ZXh0IGZpbGw9IiMwMDAwMDAiIGZvbnQtZmFtaWx5PSJzYW5zLXNlcmlmIiBmb250LXNpemU9IjEzIiBsZW5ndGhBZGp1c3Q9InNwYWNpbmciIHRleHRMZW5ndGg9IjE1NiIgeD0iNzgiIHk9IjExOTYuODc1Ij4mIzEyNTA5OyYjMTI0ODM7JiMxMjUwMzsmIzEyNDUwOyYjMTI0ODM7JiMxMjUwMzsmIzEyMzAwOyYjMzAzMzE7JiMzNzY4MjsmIzIzNDM2OyYjMjAxMDI7JiMxMjMwMTs8L3RleHQ+PC9nPjxsaW5lIHN0eWxlPSJzdHJva2U6IzAwMDAwMDtzdHJva2Utd2lkdGg6MTtzdHJva2UtZGFzaGFycmF5OjIuMCwyLjA7IiB4MT0iMzAiIHgyPSIxMzMxLjUiIHkxPSIxMjA5LjUiIHkyPSIxMjA5LjUiLz48dGV4dCBmaWxsPSIjMDAwMDAwIiBmb250LWZhbWlseT0ic2Fucy1zZXJpZiIgZm9udC1zaXplPSIxMSIgZm9udC13ZWlnaHQ9ImJvbGQiIGxlbmd0aEFkanVzdD0ic3BhY2luZyIgdGV4dExlbmd0aD0iMTg3IiB4PSIzNSIgeT0iMTIxOS44OTg0Ij5bSFRUUCA0MDAmIzY1Mjg4OyYjMTI0OTY7JiMxMjUyMjsmIzEyNDg3OyYjMTI1NDA7JiMxMjQ3MTsmIzEyNTE5OyYjMTI1MzE7JiMxMjQ1NjsmIzEyNTIxOyYjMTI1NDA7JiM2NTI4OTtdPC90ZXh0PjxnIGNsYXNzPSJtZXNzYWdlIiBkYXRhLXBhcnRpY2lwYW50LTE9IkNvbnRyb2xsZXIiIGRhdGEtcGFydGljaXBhbnQtMj0iRnJvbnRlbmQiPjxwb2x5Z29uIGZpbGw9IiMxODE4MTgiIHBvaW50cz0iMTI3NC41LDEyMzguMTg3NSwxMjg0LjUsMTI0Mi4xODc1LDEyNzQuNSwxMjQ2LjE4NzUsMTI3OC41LDEyNDIuMTg3NSIgc3R5bGU9InN0cm9rZTojMTgxODE4O3N0cm9rZS13aWR0aDoxOyIvPjxsaW5lIHN0eWxlPSJzdHJva2U6IzE4MTgxODtzdHJva2Utd2lkdGg6MTtzdHJva2UtZGFzaGFycmF5OjIuMCwyLjA7IiB4MT0iMzE5IiB4Mj0iMTI4MC41IiB5MT0iMTI0Mi4xODc1IiB5Mj0iMTI0Mi4xODc1Ii8+PHRleHQgZmlsbD0iIzAwMDAwMCIgZm9udC1mYW1pbHk9InNhbnMtc2VyaWYiIGZvbnQtc2l6ZT0iMTMiIGxlbmd0aEFkanVzdD0ic3BhY2luZyIgdGV4dExlbmd0aD0iNjUiIHg9IjMyNiIgeT0iMTIzOC41NjI1Ij4mIzEyNDU2OyYjMTI1MjE7JiMxMjU0MDsmIzM1NDQzOyYjMzIwNDg7PC90ZXh0PjwvZz48ZyBjbGFzcz0ibWVzc2FnZSIgZGF0YS1wYXJ0aWNpcGFudC0xPSJGcm9udGVuZCIgZGF0YS1wYXJ0aWNpcGFudC0yPSJVc2VyIj48cG9seWdvbiBmaWxsPSIjMTgxODE4IiBwb2ludHM9IjcyLDEyNjYuMTAxNiw2MiwxMjcwLjEwMTYsNzIsMTI3NC4xMDE2LDY4LDEyNzAuMTAxNiIgc3R5bGU9InN0cm9rZTojMTgxODE4O3N0cm9rZS13aWR0aDoxOyIvPjxsaW5lIHN0eWxlPSJzdHJva2U6IzE4MTgxODtzdHJva2Utd2lkdGg6MTtzdHJva2UtZGFzaGFycmF5OjIuMCwyLjA7IiB4MT0iNjYiIHgyPSIxMjg1LjUiIHkxPSIxMjcwLjEwMTYiIHkyPSIxMjcwLjEwMTYiLz48dGV4dCBmaWxsPSIjMDAwMDAwIiBmb250LWZhbWlseT0ic2Fucy1zZXJpZiIgZm9udC1zaXplPSIxMyIgbGVuZ3RoQWRqdXN0PSJzcGFjaW5nIiB0ZXh0TGVuZ3RoPSI5MSIgeD0iNzgiIHk9IjEyNjYuNDc2NiI+JiMyMDgzNzsmIzIxMTQ3OyYjMTI0NTY7JiMxMjUyMTsmIzEyNTQwOyYjMzQ5MjA7JiMzMTAzNDs8L3RleHQ+PC9nPjxsaW5lIHN0eWxlPSJzdHJva2U6IzAwMDAwMDtzdHJva2Utd2lkdGg6MTtzdHJva2UtZGFzaGFycmF5OjIuMCwyLjA7IiB4MT0iMzAiIHgyPSIxMzMxLjUiIHkxPSIxMjc5LjEwMTYiIHkyPSIxMjc5LjEwMTYiLz48dGV4dCBmaWxsPSIjMDAwMDAwIiBmb250LWZhbWlseT0ic2Fucy1zZXJpZiIgZm9udC1zaXplPSIxMSIgZm9udC13ZWlnaHQ9ImJvbGQiIGxlbmd0aEFkanVzdD0ic3BhY2luZyIgdGV4dExlbmd0aD0iMTU0IiB4PSIzNSIgeT0iMTI4OS41Ij5bSFRUUCA1MDAmIzY1Mjg4OyYjMTI0Njk7JiMxMjU0MDsmIzEyNDk2OyYjMTI1NDA7JiMxMjQ1NjsmIzEyNTIxOyYjMTI1NDA7JiM2NTI4OTtdPC90ZXh0PjxnIGNsYXNzPSJtZXNzYWdlIiBkYXRhLXBhcnRpY2lwYW50LTE9IkNvbnRyb2xsZXIiIGRhdGEtcGFydGljaXBhbnQtMj0iRnJvbnRlbmQiPjxwb2x5Z29uIGZpbGw9IiMxODE4MTgiIHBvaW50cz0iMTI3NC41LDEzMDcuNzg5MSwxMjg0LjUsMTMxMS43ODkxLDEyNzQuNSwxMzE1Ljc4OTEsMTI3OC41LDEzMTEuNzg5MSIgc3R5bGU9InN0cm9rZTojMTgxODE4O3N0cm9rZS13aWR0aDoxOyIvPjxsaW5lIHN0eWxlPSJzdHJva2U6IzE4MTgxODtzdHJva2Utd2lkdGg6MTtzdHJva2UtZGFzaGFycmF5OjIuMCwyLjA7IiB4MT0iMzE5IiB4Mj0iMTI4MC41IiB5MT0iMTMxMS43ODkxIiB5Mj0iMTMxMS43ODkxIi8+PHRleHQgZmlsbD0iIzAwMDAwMCIgZm9udC1mYW1pbHk9InNhbnMtc2VyaWYiIGZvbnQtc2l6ZT0iMTMiIGxlbmd0aEFkanVzdD0ic3BhY2luZyIgdGV4dExlbmd0aD0iMTE3IiB4PSIzMjYiIHk9IjEzMDguMTY0MSI+JiMxMjQ2OTsmIzEyNTQwOyYjMTI0OTY7JiMxMjU0MDsmIzIwODY5OyYjMzcwOTY7JiMxMjQ1NjsmIzEyNTIxOyYjMTI1NDA7PC90ZXh0PjwvZz48ZyBjbGFzcz0ibWVzc2FnZSIgZGF0YS1wYXJ0aWNpcGFudC0xPSJGcm9udGVuZCIgZGF0YS1wYXJ0aWNpcGFudC0yPSJVc2VyIj48cG9seWdvbiBmaWxsPSIjMTgxODE4IiBwb2ludHM9IjcyLDEzMzUuNzAzMSw2MiwxMzM5LjcwMzEsNzIsMTM0My43MDMxLDY4LDEzMzkuNzAzMSIgc3R5bGU9InN0cm9rZTojMTgxODE4O3N0cm9rZS13aWR0aDoxOyIvPjxsaW5lIHN0eWxlPSJzdHJva2U6IzE4MTgxODtzdHJva2Utd2lkdGg6MTtzdHJva2UtZGFzaGFycmF5OjIuMCwyLjA7IiB4MT0iNjYiIHgyPSIxMjg1LjUiIHkxPSIxMzM5LjcwMzEiIHkyPSIxMzM5LjcwMzEiLz48dGV4dCBmaWxsPSIjMDAwMDAwIiBmb250LWZhbWlseT0ic2Fucy1zZXJpZiIgZm9udC1zaXplPSIxMyIgbGVuZ3RoQWRqdXN0PSJzcGFjaW5nIiB0ZXh0TGVuZ3RoPSIxMTciIHg9Ijc4IiB5PSIxMzM2LjA3ODEiPiYjMTI0Njk7JiMxMjU0MDsmIzEyNDk2OyYjMTI1NDA7JiMxMjQ1NjsmIzEyNTIxOyYjMTI1NDA7JiMzNDkyMDsmIzMxMDM0OzwvdGV4dD48L2c+PHBhdGggZD0iTTMwLDEzNjEuNzAzMSBMOTQuNSwxMzYxLjcwMzEgTDk0LjUsMTM2Ny42MTcyIEw4NC41LDEzNzcuNjE3MiBMMzAsMTM3Ny42MTcyIEwzMCwxMzYxLjcwMzEiIGZpbGw9IiNFRUVFRUUiIHN0eWxlPSJzdHJva2U6IzAwMDAwMDtzdHJva2Utd2lkdGg6MS41OyIvPjxyZWN0IGZpbGw9Im5vbmUiIGhlaWdodD0iODQuNzQyMiIgc3R5bGU9InN0cm9rZTojMDAwMDAwO3N0cm9rZS13aWR0aDoxLjU7IiB3aWR0aD0iMTM1My41IiB4PSIzMCIgeT0iMTM2MS43MDMxIi8+PHRleHQgZmlsbD0iIzAwMDAwMCIgZm9udC1mYW1pbHk9InNhbnMtc2VyaWYiIGZvbnQtc2l6ZT0iMTMiIGZvbnQtd2VpZ2h0PSJib2xkIiBsZW5ndGhBZGp1c3Q9InNwYWNpbmciIHRleHRMZW5ndGg9IjE5LjUiIHg9IjQ1IiB5PSIxMzc0Ljk5MjIiPmFsdDwvdGV4dD48dGV4dCBmaWxsPSIjMDAwMDAwIiBmb250LWZhbWlseT0ic2Fucy1zZXJpZiIgZm9udC1zaXplPSIxMSIgZm9udC13ZWlnaHQ9ImJvbGQiIGxlbmd0aEFkanVzdD0ic3BhY2luZyIgdGV4dExlbmd0aD0iNTUiIHg9IjEwOS41IiB5PSIxMzc0LjEwMTYiPlsmIzM2ODkwOyYjMjA0NDk7JiMyMjgzMzsmIzI1OTQzO108L3RleHQ+PGcgY2xhc3M9Im1lc3NhZ2UiIGRhdGEtcGFydGljaXBhbnQtMT0iRnJvbnRlbmQiIGRhdGEtcGFydGljaXBhbnQtMj0iRnJvbnRlbmQiPjxsaW5lIHN0eWxlPSJzdHJva2U6IzE4MTgxODtzdHJva2Utd2lkdGg6MTsiIHgxPSIxMjg2LjUiIHgyPSIxMzI4LjUiIHkxPSIxMzk3LjUzMTMiIHkyPSIxMzk3LjUzMTMiLz48bGluZSBzdHlsZT0ic3Ryb2tlOiMxODE4MTg7c3Ryb2tlLXdpZHRoOjE7IiB4MT0iMTMyOC41IiB4Mj0iMTMyOC41IiB5MT0iMTM5Ny41MzEzIiB5Mj0iMTQxMC41MzEzIi8+PGxpbmUgc3R5bGU9InN0cm9rZTojMTgxODE4O3N0cm9rZS13aWR0aDoxOyIgeDE9IjEyODcuNSIgeDI9IjEzMjguNSIgeTE9IjE0MTAuNTMxMyIgeTI9IjE0MTAuNTMxMyIvPjxwb2x5Z29uIGZpbGw9IiMxODE4MTgiIHBvaW50cz0iMTI5Ny41LDE0MDYuNTMxMywxMjg3LjUsMTQxMC41MzEzLDEyOTcuNSwxNDE0LjUzMTMsMTI5My41LDE0MTAuNTMxMyIgc3R5bGU9InN0cm9rZTojMTgxODE4O3N0cm9rZS13aWR0aDoxOyIvPjx0ZXh0IGZpbGw9IiMwMDAwMDAiIGZvbnQtZmFtaWx5PSJzYW5zLXNlcmlmIiBmb250LXNpemU9IjEzIiBsZW5ndGhBZGp1c3Q9InNwYWNpbmciIHRleHRMZW5ndGg9Ijc4IiB4PSIxMjkzLjUiIHk9IjEzOTMuOTA2MyI+Y2F0Y2goZXJyb3IpPC90ZXh0PjwvZz48ZyBjbGFzcz0ibWVzc2FnZSIgZGF0YS1wYXJ0aWNpcGFudC0xPSJGcm9udGVuZCIgZGF0YS1wYXJ0aWNpcGFudC0yPSJVc2VyIj48cG9seWdvbiBmaWxsPSIjMTgxODE4IiBwb2ludHM9IjcyLDE0MzQuNDQ1Myw2MiwxNDM4LjQ0NTMsNzIsMTQ0Mi40NDUzLDY4LDE0MzguNDQ1MyIgc3R5bGU9InN0cm9rZTojMTgxODE4O3N0cm9rZS13aWR0aDoxOyIvPjxsaW5lIHN0eWxlPSJzdHJva2U6IzE4MTgxODtzdHJva2Utd2lkdGg6MTtzdHJva2UtZGFzaGFycmF5OjIuMCwyLjA7IiB4MT0iNjYiIHgyPSIxMjg1LjUiIHkxPSIxNDM4LjQ0NTMiIHkyPSIxNDM4LjQ0NTMiLz48dGV4dCBmaWxsPSIjMDAwMDAwIiBmb250LWZhbWlseT0ic2Fucy1zZXJpZiIgZm9udC1zaXplPSIxMyIgbGVuZ3RoQWRqdXN0PSJzcGFjaW5nIiB0ZXh0TGVuZ3RoPSIxMTciIHg9Ijc4IiB5PSIxNDM0LjgyMDMiPiYjMzY4OTA7JiMyMDQ0OTsmIzIyODMzOyYjMjU5NDM7JiMxMjQ1NjsmIzEyNTIxOyYjMTI1NDA7JiMzNDkyMDsmIzMxMDM0OzwvdGV4dD48L2c+PCEtLVNSQz1bZkxQREpuZjE2QnhwQW9RVXo2MGFKTmxYTzJBWWhNYklaVDlVY29zaVRQanI4U0RneDByc2ViQUEyR1VqcU1mSFFva01laE1zNU83NDdwQ2liOURfZVZFbng5U2lMOXRCcGgzbHl0dS15b25uMFFmSUg4ZUJZV2h3ZFlUNHMwVTQxQTBSTnpwLVFiSEtMMTVFQUJFbnFQWVltZldpNndSTXFHaW03ZUZwcDlIa2tYY3o0NkdmQWdXbkUzNFZibmQyX0NLQkRZRjJISWFZQ2NEWnhzS3dCU1BaMk9kdVVpa2loUUNKZUV5S3o0ZUhRck1DcGg1c1hMNmpXUFJybEpFQ0xpV1VlbXlPNVBjM0tEM2Q0c0dMd0JiaU9vVWxodHZqdmJRa1EtZGNVaE1yVXoxQU5KSUZnalVyVHB2MDVjcWQ2MW9zekllMDdlLTVtUDBHZFBVS2VPWVB1bjBLTnFpOVNjMG1vbm1DNFpKcjRXMUdMMVVXcVd0ZzZOOWdTa1BNQ09WUG4wOTBOX3dZUHB2WWJDRlE4VXFBdWJOSGJ6Sjg3NTgwQkZBanMzXzBpczN6dU1ZaldENG54TTFBbXJnNmxRTkIxQkNJVUpwQjVrclpYRFdpUWJXaF9vc0t6OURqNHloWmtzaHFtaFFJZ1ZoTGxlZGpzNWhGa0ZrNXZjNmJFeFJ0TTJYS2IxQ1lROUctdy1LbzlxbjdmeURqQVdUMEdiV0tCR2c3MTVOZWRvTGI2LXNiQW04YkdidjExWFliTVZRNGpOLW1UZWdyMnVvRW9ENnFmQ2ptSjZETzV5MFRuV1hYbnJkNjUxZUExaTM0aXZjbndKMXZYMlMxQl9VYkhCMC0xdXBFbHhiTFJNTF9yaWliZDJnNldjUUZjcmtMdmRoVU9VckFhNFIxUTlORFdEcDM0WGpDYVRBR3BrUkswVkxrUjRfNzZZNXFkaGY0UVFUQjlVZ3B4dHRzZWN1S3FqWklFWlZ3UmxveUJxVXh5M0dnR0o2WTFkZkhyVW1nZHJ5WmRUQ3AtVHgtWE1YcU4xT0lTb0VnMmdMTjJxbUF4Zk1LZjRKNTlQenhBRko5aWNsalZkODl5Q1dST1NhamxFRUdYMktPSXlpc2lDUXhrNFRlb05fYWVjUE9UYVFiaTdSNHNLUzJPVkdEUW1VS2FmSDVIMWR0c2M0anNRa05ybVdoQlNhb2xQa3JrLUpIRGFUTTd0X0RjTXN3a0xhTTduOTZFLW9nZDNTb2pOaHZWT1VtSlpCSUxkYno1SUk1MTU3bGg0X3Q0UHBfNXZpczhYSGE3Ukw3UzE3TXhqRFVXQ2xDd3plUVBXdURVMThFSnU0N1ZaLU9WRGdEdWt1WHdJVlBVZU55Yl9ZRWpLa0NUZmJXTnBlU1Q2MDlDb0dJalNhT25wUjloQ0RWU2lydlJMYnMzX3ItSGpHU3ZRZ1hVQ1BkbU1IU2N4R3pxeFN1VWRwVV9GTVpMeWhVbjdSYy04WmRnRnJjcnA3N1NobnpRWFBRTnJia2VPQmZlc1RkRW1Mczkta01fclBvY3dZclZkWk1zRFpxMjYxRkJvQWVhUmItNFM4TzdFWUxaenJyanRuQzVMSVlfbTAwXS0tPjwvZz48L3N2Zz4=;" parent="1" vertex="1">
            <mxGeometry x="10" y="-1260" width="1494" height="1511" as="geometry" />
          </mxCell>
        </UserObject>
      </root>
    </mxGraphModel>
  </diagram>
</mxfile>
